<?xml version="1.0" encoding="UTF-8" standalone="no"?>
<!DOCTYPE svg PUBLIC "-//W3C//DTD SVG 1.1//EN" "http://www.w3.org/Graphics/SVG/1.1/DTD/svg11.dtd">
<svg width="64px" height="64px" version="1.1" xmlns="http://www.w3.org/2000/svg" xmlns:xlink="http://www.w3.org/1999/xlink" xml:space="preserve" xmlns:serif="http://www.serif.com/" style="fill-rule:evenodd;clip-rule:evenodd;stroke-linecap:round;stroke-linejoin:round;stroke-miterlimit:1.5;">
    <g transform="matrix(1,0,0,1,-310.168,-89.0476)">
        <g transform="matrix(0.479167,0,0,0.362963,0,0)">
            <g transform="matrix(1.0639,0,0,1.40451,215.283,108.91)">
                <circle cx="468" cy="159.057" r="60.943" style="fill:rgb(242,175,13);stroke:rgb(54,93,157);stroke-width:1.96px;"/>
            </g>
        </g>
        <g transform="matrix(0.479167,0,0,0.362963,0,0)">
            <g transform="matrix(0.978795,0,0,1.29216,255.112,126.78)">
                <circle cx="468" cy="159.057" r="60.943" style="fill:white;"/>
            </g>
        </g>
        <g transform="matrix(0.479167,0,0,0.362963,0,0)">
            <g transform="matrix(0.912371,0,0,1.20447,286.198,140.728)">
                <circle cx="468" cy="159.057" r="60.943" style="fill:rgb(54,93,157);"/>
            </g>
        </g>
        <g transform="matrix(0.479167,0,0,0.362963,0,0)">
            <g transform="matrix(0.0363699,0,0,0.0363699,685.118,315.454)">
                <g transform="matrix(2.08696,0,0,2.7551,0,0)">
                    <path d="M197.44,266.68C197.44,266.68 313.52,371.808 188.384,520.264C188.384,520.264 176.352,563.712 206.936,565.536C206.936,565.536 260.168,518.664 282.736,432.968C305.312,347.256 269.92,278.488 213.744,221.304C213.744,221.304 78.736,253.72 50.776,398.8C28.088,516.528 81.688,556.784 81.688,556.784C81.688,556.784 100.592,565.256 112.064,530.744C112.072,530.752 0.888,371.104 197.44,266.68Z" style="fill:rgb(242,175,13);fill-rule:nonzero;"/>
                </g>
                <g transform="matrix(2.08696,0,0,2.7551,0,0)">
                    <path d="M213.744,221.304C253.576,261.856 282.936,308.24 288.608,362.352C321.8,305.008 352.976,237.424 325.48,179.288C285.336,94.416 164.352,102.104 113.288,186.016C81.552,238.16 67.624,297.92 65.912,349.312C110.536,246.096 213.744,221.304 213.744,221.304Z" style="fill:white;fill-rule:nonzero;"/>
                    <path d="M224.32,546.96C214.12,559.2 206.936,565.544 206.936,565.544C176.352,563.712 188.384,520.272 188.384,520.272C313.52,371.808 197.44,266.68 197.44,266.68C0.888,371.104 112.072,530.752 112.072,530.752C100.592,565.256 81.696,556.792 81.696,556.792C81.696,556.792 74.984,551.712 67.32,540C59.744,567.224 50.904,591.984 47.44,608.928C39.336,648.56 39.216,742.888 126.68,754.88C214.168,766.864 240.328,674.712 227.08,595.56C225.072,583.552 224.256,575.168 224.32,546.96Z" style="fill:white;fill-rule:nonzero;"/>
                </g>
                <g transform="matrix(2.08696,0,0,2.7551,0,0)">
                    <path d="M602.56,191.488C602.56,191.488 486.48,296.616 611.616,445.072C611.616,445.072 623.648,488.52 593.064,490.344C593.064,490.344 539.832,443.472 517.264,357.776C494.688,272.064 530.08,203.296 586.256,146.112C586.256,146.112 721.264,178.528 749.224,323.608C771.912,441.336 718.312,481.592 718.312,481.592C718.312,481.592 699.408,490.064 687.936,455.552C687.928,455.552 799.112,295.912 602.56,191.488Z" style="fill:rgb(242,175,13);fill-rule:nonzero;"/>
                </g>
                <g transform="matrix(2.08696,0,0,2.7551,0,0)">
                    <path d="M586.256,146.112C546.424,186.664 517.064,233.048 511.392,287.16C478.2,229.816 447.024,162.232 474.52,104.096C514.664,19.224 635.648,26.912 686.712,110.824C718.448,162.968 732.376,222.728 734.096,274.12C689.464,170.896 586.256,146.112 586.256,146.112Z" style="fill:white;fill-rule:nonzero;"/>
                    <path d="M575.68,471.768C585.88,484.008 593.064,490.352 593.064,490.352C623.648,488.52 611.616,445.08 611.616,445.08C486.48,296.616 602.56,191.488 602.56,191.488C799.112,295.912 687.928,455.552 687.928,455.552C699.408,490.064 718.304,481.592 718.304,481.592C718.304,481.592 725.016,476.52 732.672,464.808C740.248,492.032 749.088,516.792 752.552,533.736C760.656,573.368 760.776,667.696 673.312,679.688C585.824,691.672 559.664,599.52 572.912,520.368C574.928,508.36 575.744,499.976 575.68,471.768Z" style="fill:white;fill-rule:nonzero;"/>
                </g>
                <g transform="matrix(2.08696,0,0,2.7551,0,0)">
                    <path d="M329.136,177.56C311.48,140.24 277.296,117.576 235.328,115.368C186.056,112.792 136.752,139.688 109.832,183.912C80.968,231.328 63.96,289.768 61.888,348.544C55.496,363.408 50.304,379.856 46.8,398.032C32.184,473.936 48.544,518.224 62.88,540.792C59.992,551.056 56.984,560.856 54.072,570.312C49.52,585.08 45.584,597.84 43.48,608.112C37.008,639.76 37.792,688.48 61.304,721.664C76.056,742.488 97.872,755.008 126.136,758.888C131.552,759.624 136.792,760 141.856,760C165.576,760 185.464,751.88 201.104,735.768C234.776,701.08 238.656,640.256 231.072,594.896C229.176,583.584 228.336,575.6 228.368,548.544C246.208,526.976 272.336,488.336 286.648,434.008C293.016,409.832 295.072,386.264 292.808,363.168C326.656,304.496 357.12,236.736 329.136,177.56ZM116.744,188.12C142.136,146.392 188.48,120.96 234.904,123.448C273.8,125.488 305.48,146.472 321.824,181.016C346.808,233.832 321.608,295.296 291.032,349.92C290.072,344.312 288.824,338.736 287.344,333.184C287.32,333.104 287.304,333.032 287.28,332.952C286.6,330.408 285.864,327.872 285.08,325.344C284.976,325.016 284.888,324.696 284.784,324.368C283.952,321.76 283.088,319.16 282.136,316.56C281.864,315.8 281.552,315.048 281.264,314.288C280.64,312.632 280.008,310.984 279.344,309.336C278.72,307.808 278.064,306.28 277.4,304.752C277.048,303.944 276.704,303.144 276.344,302.344C275.56,300.584 274.744,298.832 273.896,297.08C273.688,296.648 273.472,296.216 273.264,295.784C269.128,287.304 264.344,278.88 258.92,270.488C258.848,270.368 258.768,270.256 258.696,270.136C257.376,268.096 256.008,266.056 254.608,264.024C254.432,263.76 254.248,263.504 254.064,263.24C250.072,257.48 245.776,251.736 241.168,246C240.616,245.312 240.08,244.632 239.528,243.944C238.44,242.616 237.32,241.288 236.208,239.96C235.192,238.752 234.168,237.552 233.128,236.344C232.152,235.216 231.16,234.088 230.16,232.952C228.816,231.44 227.448,229.928 226.056,228.416C225.24,227.528 224.432,226.64 223.608,225.752C221.336,223.32 219.024,220.888 216.64,218.464C216.296,218.112 215.888,217.864 215.456,217.664C215.352,217.616 215.256,217.568 215.144,217.528C214.712,217.368 214.256,217.264 213.792,217.256C213.776,217.256 213.768,217.248 213.752,217.248C213.44,217.248 213.12,217.288 212.808,217.36C212.776,217.368 212.608,217.408 212.36,217.472C212.296,217.488 212.24,217.504 212.16,217.528C211.912,217.592 211.592,217.68 211.192,217.792C211.088,217.824 210.992,217.848 210.872,217.88C210.384,218.016 209.816,218.184 209.16,218.384C209.112,218.4 209.064,218.408 209.016,218.424C191.184,223.776 114.152,250.832 71.232,329.2C75.928,278.552 91.8,229.096 116.744,188.12ZM223.096,596.224C232.224,650.768 221.32,703.328 195.304,730.128C178.216,747.736 155.32,754.712 127.232,750.872C101.272,747.312 81.312,735.912 67.904,716.992C45.896,685.92 45.256,639.8 51.4,609.744C53.424,599.856 57.304,587.272 61.8,572.704C64.136,565.136 66.528,557.368 68.88,549.288C74.368,556.208 78.656,559.568 79.264,560.024C79.504,560.2 79.76,560.36 80.04,560.48C80.072,560.496 80.208,560.552 80.384,560.616C81.664,561.112 86.784,562.728 93.176,560.728C93.92,560.496 94.656,560.264 95.432,559.928C96.56,559.432 97.656,558.832 98.728,558.152C105.896,553.568 111.672,544.808 115.92,532.032C116.32,530.824 116.128,529.496 115.4,528.448C114.96,527.816 71.648,464.52 88.872,393.216C100.52,344.992 136.808,304.104 196.736,271.656C211.328,286.608 297.312,384.776 185.296,517.664C184.92,518.112 184.648,518.632 184.488,519.192C184.192,520.256 177.392,545.416 187.712,559.864C191.968,565.816 198.352,569.088 206.704,569.584C206.784,569.592 206.864,569.592 206.944,569.592C207.2,569.592 207.44,569.504 207.688,569.456C207.904,569.416 208.128,569.416 208.336,569.336C208.8,569.168 209.24,568.912 209.616,568.584C210.2,568.072 214.264,564.432 220.312,557.824C220.472,578.288 221.36,585.88 223.096,596.224ZM278.832,431.944C258.768,508.12 213.592,553.68 205.512,561.36C200.504,560.736 196.832,558.704 194.296,555.168C187.096,545.104 191.08,526.296 192.08,522.16C281.472,415.56 247.968,330.008 221.04,289.368C220.536,288.608 220.04,287.872 219.544,287.144C213.44,278.224 207.808,271.664 204.208,267.792C203.696,267.24 203.24,266.76 202.808,266.32C202.376,265.872 201.976,265.464 201.64,265.128C200.752,264.24 200.232,263.752 200.16,263.688C198.896,262.544 197.048,262.32 195.544,263.112C131.928,296.912 93.392,340.048 81.008,391.312C75.8,412.864 75.744,433.536 78.344,452.12C78.864,455.832 79.488,459.464 80.2,463.008C80.56,464.776 80.936,466.52 81.328,468.248C88.872,500.952 103.32,524.768 107.592,531.336C103.632,542.408 98.384,549.696 92.36,552.44C91.904,552.648 91.456,552.816 91.024,552.96C87.512,554.152 84.704,553.528 83.728,553.232C83.168,552.76 82.064,551.784 80.592,550.28C80.568,550.248 80.536,550.224 80.512,550.2C80.04,549.712 79.52,549.168 78.976,548.568C78.888,548.472 78.8,548.368 78.712,548.272C78.288,547.808 77.848,547.296 77.392,546.76C76.984,546.28 76.56,545.76 76.128,545.224C76.016,545.088 75.912,544.96 75.8,544.824C62.24,527.784 38.456,484.136 54.752,399.576C79.944,268.864 195.176,230.848 212.512,225.84C214.896,228.296 217.192,230.752 219.464,233.208C220.312,234.128 221.136,235.048 221.968,235.968C223.32,237.464 224.648,238.96 225.952,240.456C226.96,241.616 227.984,242.776 228.968,243.936C229.84,244.96 230.672,245.984 231.52,247.008C234.096,250.12 236.6,253.232 238.992,256.344C239.136,256.536 239.288,256.728 239.432,256.912C258.344,281.696 271.4,306.8 278.68,332.416C278.72,332.544 278.752,332.672 278.792,332.8C279.352,334.8 279.88,336.8 280.376,338.808C280.488,339.28 280.592,339.76 280.704,340.232C281.344,342.944 281.912,345.656 282.432,348.384C282.704,349.84 282.984,351.288 283.224,352.752C283.4,353.808 283.544,354.872 283.696,355.928C283.952,357.696 284.184,359.464 284.384,361.232C287.032,384.288 285.184,407.816 278.832,431.944Z" style="fill:rgb(19,98,150);fill-rule:nonzero;"/>
                </g>
                <g transform="matrix(2.08696,0,0,2.7551,0,0)">
                    <path d="M333.136,350.048C331.184,348.952 328.72,349.64 327.624,351.592C325.968,354.528 324.304,357.44 322.632,360.328C321.512,362.264 322.176,364.736 324.104,365.856C324.744,366.224 325.44,366.4 326.128,366.4C327.528,366.4 328.88,365.68 329.632,364.384C331.32,361.472 333,358.528 334.672,355.568C335.768,353.616 335.08,351.144 333.136,350.048Z" style="fill:rgb(19,98,150);fill-rule:nonzero;"/>
                </g>
                <g transform="matrix(2.08696,0,0,2.7551,0,0)">
                    <path d="M350.768,315.632C348.752,314.68 346.336,315.536 345.384,317.56C342.792,323.04 339.912,328.808 336.816,334.72C335.776,336.696 336.544,339.144 338.52,340.176C339.12,340.488 339.76,340.64 340.392,340.64C341.848,340.64 343.256,339.856 343.976,338.472C347.12,332.472 350.056,326.6 352.688,321.016C353.648,319 352.784,316.584 350.768,315.632Z" style="fill:rgb(19,98,150);fill-rule:nonzero;"/>
                </g>
                <g transform="matrix(2.08696,0,0,2.7551,0,0)">
                    <path d="M364.872,279.624C362.752,278.92 360.464,280.072 359.76,282.192C357.848,287.96 355.608,293.976 353.12,300.064C352.272,302.128 353.264,304.496 355.328,305.336C355.832,305.544 356.352,305.64 356.856,305.64C358.448,305.64 359.96,304.696 360.6,303.128C363.16,296.864 365.464,290.68 367.44,284.736C368.144,282.616 367,280.328 364.872,279.624Z" style="fill:rgb(19,98,150);fill-rule:nonzero;"/>
                </g>
                <g transform="matrix(2.08696,0,0,2.7551,0,0)">
                    <path d="M372.912,241.84C370.696,241.544 368.672,243.136 368.4,245.352C367.648,251.344 366.504,257.6 364.992,263.936C364.472,266.112 365.816,268.288 367.984,268.808C368.296,268.88 368.616,268.92 368.928,268.92C370.76,268.92 372.416,267.672 372.856,265.816C374.432,259.192 375.632,252.648 376.424,246.36C376.704,244.136 375.136,242.112 372.912,241.84Z" style="fill:rgb(19,98,150);fill-rule:nonzero;"/>
                </g>
                <g transform="matrix(2.08696,0,0,2.7551,0,0)">
                    <path d="M371.152,203.328C368.952,203.712 367.472,205.8 367.856,208C368.888,213.968 369.448,220.224 369.512,226.6C369.536,228.816 371.344,230.6 373.56,230.6L373.6,230.6C375.832,230.576 377.624,228.744 377.6,226.512C377.528,219.704 376.928,213.016 375.824,206.624C375.448,204.432 373.36,202.952 371.152,203.328Z" style="fill:rgb(19,98,150);fill-rule:nonzero;"/>
                </g>
                <g transform="matrix(2.08696,0,0,2.7551,0,0)">
                    <path d="M363.088,189.992C363.688,191.64 365.24,192.664 366.888,192.664C367.344,192.664 367.808,192.584 368.264,192.424C370.36,191.664 371.448,189.344 370.688,187.24C369.504,183.976 368.144,180.712 366.648,177.56C365.696,175.536 363.28,174.68 361.264,175.632C359.24,176.584 358.384,179 359.336,181.016C360.736,183.944 361.992,186.96 363.088,189.992Z" style="fill:rgb(19,98,150);fill-rule:nonzero;"/>
                </g>
                <g transform="matrix(2.08696,0,0,2.7551,0,0)">
                    <path d="M265.896,546.968C265.904,544.736 264.096,542.92 261.864,542.912L261.856,542.912C259.624,542.912 257.816,544.72 257.808,546.944C257.744,575.92 258.616,584.216 260.624,596.216C266.256,629.84 264.456,663.32 255.568,690.488C254.872,692.608 256.032,694.896 258.152,695.592C258.568,695.728 258.992,695.792 259.408,695.792C261.112,695.792 262.696,694.704 263.248,693C272.536,664.616 274.44,629.768 268.6,594.872C266.672,583.352 265.832,575.336 265.896,546.968Z" style="fill:rgb(19,98,150);fill-rule:nonzero;"/>
                </g>
                <g transform="matrix(2.08696,0,0,2.7551,0,0)">
                    <path d="M756.52,532.928C754.416,522.648 750.488,509.896 745.928,495.128C743.016,485.672 740.008,475.872 737.12,465.608C751.448,443.04 767.816,398.752 753.192,322.848C749.688,304.672 744.504,288.224 738.104,273.36C736.04,214.592 719.024,156.152 690.168,108.728C663.256,64.504 613.96,37.584 564.672,40.184C522.712,42.384 488.52,65.056 470.864,102.376C442.88,161.552 473.344,229.312 507.192,287.976C504.928,311.072 506.984,334.64 513.352,358.816C527.664,413.152 553.792,451.784 571.632,473.352C571.664,500.408 570.824,508.392 568.928,519.704C561.336,565.064 565.224,625.888 598.896,660.576C614.544,676.696 634.416,684.808 658.144,684.808C663.208,684.808 668.456,684.44 673.864,683.696C702.128,679.824 723.944,667.296 738.696,646.472C762.208,613.288 762.992,564.568 756.52,532.928ZM478.176,105.824C494.52,71.28 526.2,50.296 565.096,48.256C567.144,48.144 569.192,48.096 571.24,48.096C615.544,48.096 658.992,73.048 683.256,112.928C708.2,153.904 724.072,203.352 728.776,254.024C685.872,175.688 608.872,148.616 591.008,143.256C590.936,143.232 590.88,143.216 590.808,143.192C590.168,143 589.608,142.84 589.136,142.704C589.016,142.672 588.928,142.64 588.816,142.616C588.416,142.504 588.096,142.416 587.848,142.352C587.768,142.328 587.712,142.312 587.648,142.296C587.4,142.232 587.232,142.192 587.2,142.184C585.824,141.848 584.368,142.272 583.368,143.28C580.984,145.704 578.672,148.136 576.4,150.568C575.56,151.472 574.744,152.368 573.912,153.272C572.544,154.76 571.192,156.256 569.864,157.752C568.84,158.904 567.832,160.056 566.832,161.216C565.824,162.384 564.832,163.552 563.848,164.72C562.696,166.08 561.552,167.44 560.44,168.808C559.944,169.416 559.464,170.032 558.976,170.64C554.288,176.464 549.92,182.296 545.872,188.144C545.72,188.36 545.568,188.584 545.416,188.8C543.992,190.864 542.608,192.936 541.272,195.008C541.224,195.088 541.176,195.16 541.128,195.24C535.672,203.672 530.872,212.144 526.712,220.664C526.512,221.064 526.312,221.472 526.12,221.872C525.272,223.64 524.448,225.416 523.648,227.192C523.296,227.976 522.96,228.752 522.616,229.536C521.944,231.08 521.28,232.624 520.648,234.176C519.984,235.808 519.36,237.44 518.744,239.08C518.456,239.848 518.136,240.616 517.856,241.392C516.912,243.992 516.04,246.592 515.208,249.2C515.104,249.52 515.016,249.84 514.912,250.16C514.12,252.696 513.392,255.232 512.704,257.776C512.68,257.856 512.664,257.928 512.64,258.008C511.16,263.56 509.912,269.136 508.952,274.744C478.384,220.104 453.192,158.64 478.176,105.824ZM515.616,286.032C515.816,284.256 516.048,282.488 516.304,280.72C516.456,279.664 516.608,278.6 516.776,277.544C517.008,276.088 517.288,274.648 517.56,273.2C518.08,270.456 518.648,267.728 519.296,265C519.408,264.544 519.504,264.08 519.616,263.624C520.112,261.608 520.64,259.6 521.208,257.592C521.24,257.48 521.272,257.36 521.304,257.248C528.584,231.608 541.656,206.488 560.584,181.688C560.688,181.552 560.8,181.416 560.904,181.28C563.36,178.072 565.936,174.872 568.592,171.68C569.4,170.712 570.192,169.736 571.016,168.768C572.016,167.592 573.048,166.416 574.072,165.248C575.368,163.768 576.68,162.28 578.024,160.8C578.856,159.872 579.696,158.952 580.544,158.024C582.808,155.568 585.104,153.12 587.488,150.664C604.824,155.672 720.056,193.688 745.248,324.4C766.072,432.432 721.072,473.992 716.288,478.048C716.256,478.056 716.208,478.072 716.176,478.08C715.184,478.36 712.728,478.848 709.648,477.984C709.52,477.944 709.392,477.92 709.256,477.88C708.976,477.792 708.688,477.672 708.4,477.56C708.192,477.48 707.984,477.408 707.768,477.312C707.32,477.112 706.888,476.84 706.448,476.592C706.136,476.416 705.816,476.272 705.512,476.064C705.088,475.784 704.68,475.448 704.272,475.12C703.968,474.88 703.656,474.672 703.352,474.408C702.952,474.056 702.568,473.64 702.176,473.24C701.88,472.936 701.576,472.664 701.28,472.336C700.896,471.912 700.536,471.416 700.16,470.952C699.872,470.592 699.576,470.256 699.296,469.872C698.928,469.36 698.576,468.792 698.216,468.24C697.952,467.824 697.672,467.448 697.408,467.016C697.032,466.392 696.672,465.696 696.312,465.016C696.088,464.592 695.848,464.208 695.632,463.768C695.224,462.96 694.84,462.08 694.456,461.216C694.296,460.848 694.12,460.52 693.96,460.144C693.424,458.872 692.904,457.544 692.408,456.144C699.608,445.08 735.656,385.088 719,316.128C706.616,264.864 668.08,221.728 604.464,187.928C602.96,187.136 601.112,187.36 599.848,188.504C598.664,189.584 482.68,297.64 607.944,447C609.68,453.872 612.16,470.96 605.72,479.976C603.192,483.52 599.512,485.552 594.496,486.176C586.416,478.496 541.24,432.936 521.176,356.76C514.816,332.624 512.968,309.096 515.616,286.032ZM732.096,641.792C718.688,660.712 698.728,672.12 672.768,675.672C644.688,679.512 621.792,672.536 604.696,654.928C578.688,628.128 567.776,575.568 576.904,521.024C578.632,510.68 579.528,503.088 579.696,482.616C585.176,488.6 589,492.128 590.112,493.128C590.264,493.264 590.36,493.352 590.392,493.376C590.4,493.384 590.416,493.384 590.424,493.4C590.8,493.72 591.224,493.968 591.672,494.136C591.88,494.216 592.096,494.216 592.32,494.256C592.568,494.304 592.808,494.392 593.064,494.392C593.144,494.392 593.224,494.392 593.304,494.384C601.656,493.888 608.04,490.616 612.296,484.664C622.616,470.224 615.808,445.056 615.52,443.992C615.36,443.432 615.088,442.912 614.712,442.464C563.856,382.136 546.768,322.128 563.936,264.112C574.76,227.528 596.552,203.288 603.264,196.448C607.008,198.472 610.656,200.536 614.216,202.624C667.6,234.008 700.168,272.744 711.112,317.928C716.504,340.184 715.976,361.68 712.696,380.744C705.472,422.672 684.904,452.808 684.608,453.24C684.248,453.76 684.016,454.36 683.928,454.976C683.84,455.592 683.888,456.224 684.096,456.832C688.976,471.52 695.872,480.904 704.576,484.728C708.2,486.32 711.496,486.624 714.136,486.48C716.784,486.336 718.76,485.744 719.568,485.44C719.8,485.352 719.936,485.296 719.968,485.28C720.24,485.16 720.504,485 720.744,484.824C721.352,484.368 725.64,481.008 731.128,474.088C733.48,482.168 735.872,489.936 738.208,497.504C742.704,512.072 746.584,524.656 748.6,534.544C754.744,564.6 754.112,610.728 732.096,641.792Z" style="fill:rgb(19,98,150);fill-rule:nonzero;"/>
                </g>
                <g transform="matrix(2.08696,0,0,2.7551,0,0)">
                    <path d="M440.648,105.824C441.6,103.8 440.744,101.392 438.72,100.44C436.704,99.488 434.288,100.344 433.336,102.368C405.152,161.952 436.24,230.248 470.36,289.192C471.112,290.488 472.464,291.208 473.864,291.208C474.552,291.208 475.248,291.032 475.888,290.664C477.824,289.544 478.48,287.072 477.36,285.136C444.288,228.008 414.064,162.024 440.648,105.824Z" style="fill:rgb(19,98,150);fill-rule:nonzero;"/>
                </g>
                <g transform="matrix(2.08696,0,0,2.7551,0,0)">
                    <path d="M541.696,605.856C541.144,603.688 538.944,602.384 536.776,602.936C534.608,603.488 533.304,605.688 533.856,607.856C534.72,611.248 535.696,614.6 536.744,617.824C537.304,619.528 538.888,620.616 540.592,620.616C541.008,620.616 541.432,620.552 541.848,620.416C543.968,619.72 545.128,617.432 544.432,615.312C543.44,612.256 542.52,609.072 541.696,605.856Z" style="fill:rgb(19,98,150);fill-rule:nonzero;"/>
                </g>
                <g transform="matrix(2.08696,0,0,2.7551,0,0)">
                    <path d="M531.824,517.104C531.48,519.312 532.984,521.376 535.192,521.728C535.408,521.76 535.616,521.776 535.824,521.776C537.776,521.776 539.496,520.352 539.816,518.36C540.824,511.992 541.376,506.696 541.72,500.096C541.84,497.864 540.12,495.96 537.896,495.848C535.696,495.688 533.76,497.44 533.648,499.672C533.256,507.04 532.632,511.968 531.824,517.104Z" style="fill:rgb(19,98,150);fill-rule:nonzero;"/>
                </g>
                <g transform="matrix(2.08696,0,0,2.7551,0,0)">
                    <path d="M529.328,535.104C528.712,541.168 528.32,547.304 528.176,553.336C528.12,555.568 529.888,557.424 532.12,557.48L532.224,557.48C534.408,557.48 536.208,555.736 536.264,553.536C536.408,547.704 536.784,541.784 537.376,535.92C537.6,533.696 535.984,531.712 533.76,531.488C531.536,531.232 529.552,532.888 529.328,535.104Z" style="fill:rgb(19,98,150);fill-rule:nonzero;"/>
                </g>
                <g transform="matrix(2.08696,0,0,2.7551,0,0)">
                    <path d="M534.872,593.256C537.08,592.936 538.616,590.88 538.288,588.672C537.456,583.016 536.872,577.128 536.528,571.168C536.4,568.936 534.528,567.256 532.264,567.36C530.032,567.488 528.328,569.4 528.456,571.624C528.808,577.824 529.424,583.96 530.288,589.848C530.584,591.864 532.312,593.304 534.28,593.304C534.472,593.304 534.672,593.288 534.872,593.256Z" style="fill:rgb(19,98,150);fill-rule:nonzero;"/>
                </g>
                <g transform="matrix(2.08696,0,0,2.7551,0,0)">
                    <path d="M538.096,485.928L538.128,485.928C540.352,485.928 542.16,484.136 542.176,481.912C542.2,478.832 542.208,475.464 542.192,471.76C542.184,469.528 540.376,467.728 538.144,467.728L538.136,467.728C535.904,467.736 534.096,469.552 534.104,471.784C534.112,475.464 534.104,478.808 534.088,481.864C534.072,484.088 535.864,485.912 538.096,485.928Z" style="fill:rgb(19,98,150);fill-rule:nonzero;"/>
                </g>
            </g>
        </g>
        <g transform="matrix(0.479167,0,0,0.362963,0,0)">
            <g transform="matrix(0.473352,0,-1.0072e-17,0.624898,612.306,167.597)">
                <g transform="matrix(52.1251,0,0,52.1251,131,232)">
                    <path d="M0.464,-0.54C0.476,-0.541 0.482,-0.547 0.483,-0.56L0.486,-0.673C0.486,-0.679 0.484,-0.684 0.48,-0.688C0.476,-0.692 0.471,-0.694 0.465,-0.694L0.016,-0.685C0.003,-0.684 -0.003,-0.678 -0.004,-0.665L-0.01,-0.514C-0.01,-0.507 -0.008,-0.502 -0.003,-0.498C0.002,-0.494 0.007,-0.493 0.014,-0.494L0.152,-0.52L0.146,-0.306C0.148,-0.307 0.15,-0.307 0.152,-0.306L0.152,-0.304C0.152,-0.303 0.151,-0.303 0.15,-0.303L0.146,-0.305L0.142,-0.182L0.143,-0.182L0.142,-0.181L0.138,-0.021L0.138,-0.018C0.138,-0.013 0.14,-0.009 0.144,-0.006C0.148,-0.002 0.153,-0 0.158,-0L0.294,-0.003C0.307,-0.004 0.313,-0.011 0.313,-0.023L0.314,-0.03L0.313,-0.03C0.311,-0.03 0.309,-0.031 0.307,-0.034C0.305,-0.036 0.304,-0.038 0.304,-0.039L0.307,-0.045C0.309,-0.047 0.31,-0.049 0.31,-0.051C0.31,-0.052 0.309,-0.053 0.307,-0.055C0.305,-0.057 0.304,-0.059 0.304,-0.06C0.304,-0.061 0.305,-0.063 0.307,-0.066C0.307,-0.069 0.307,-0.072 0.306,-0.074C0.305,-0.075 0.305,-0.078 0.305,-0.081C0.305,-0.081 0.306,-0.082 0.307,-0.083C0.308,-0.083 0.308,-0.083 0.309,-0.084C0.309,-0.084 0.309,-0.084 0.31,-0.085C0.307,-0.086 0.306,-0.088 0.306,-0.089C0.305,-0.09 0.304,-0.092 0.304,-0.094C0.308,-0.095 0.31,-0.097 0.31,-0.099C0.31,-0.1 0.308,-0.102 0.305,-0.105C0.305,-0.106 0.307,-0.107 0.311,-0.108C0.315,-0.109 0.316,-0.111 0.314,-0.113L0.311,-0.115C0.309,-0.115 0.307,-0.115 0.306,-0.116C0.306,-0.117 0.307,-0.119 0.308,-0.122L0.31,-0.126L0.31,-0.128L0.307,-0.129C0.306,-0.129 0.305,-0.129 0.304,-0.129C0.303,-0.128 0.303,-0.128 0.302,-0.128C0.301,-0.128 0.3,-0.129 0.3,-0.13L0.3,-0.132L0.301,-0.132L0.302,-0.133C0.303,-0.134 0.305,-0.134 0.308,-0.134C0.311,-0.134 0.312,-0.135 0.313,-0.138L0.316,-0.134L0.317,-0.14L0.311,-0.14C0.308,-0.14 0.307,-0.143 0.308,-0.148C0.309,-0.15 0.309,-0.152 0.308,-0.154L0.306,-0.157L0.305,-0.161C0.305,-0.162 0.306,-0.163 0.308,-0.165C0.31,-0.167 0.311,-0.169 0.311,-0.17L0.309,-0.179L0.306,-0.189L0.307,-0.192L0.308,-0.192L0.31,-0.194L0.31,-0.197C0.31,-0.2 0.309,-0.202 0.307,-0.205L0.312,-0.207C0.313,-0.207 0.315,-0.208 0.316,-0.209L0.319,-0.209L0.32,-0.233L0.319,-0.233C0.318,-0.233 0.316,-0.234 0.312,-0.236C0.314,-0.239 0.317,-0.241 0.32,-0.241L0.328,-0.535L0.464,-0.54ZM0.072,-0.576L0.072,-0.579L0.078,-0.579L0.078,-0.576L0.072,-0.576ZM0.16,-0.572L0.16,-0.576L0.165,-0.576L0.165,-0.572L0.16,-0.572ZM0.048,-0.562C0.045,-0.563 0.042,-0.564 0.038,-0.564C0.036,-0.567 0.037,-0.57 0.04,-0.574L0.046,-0.574L0.052,-0.57L0.052,-0.566L0.048,-0.562ZM0.14,-0.571C0.14,-0.569 0.14,-0.568 0.139,-0.568L0.137,-0.568L0.136,-0.567L0.132,-0.568L0.132,-0.574L0.14,-0.574L0.14,-0.571ZM-0.005,-0.567L-0.005,-0.57L0.004,-0.57L0.004,-0.567L-0.005,-0.567ZM0.076,-0.568L0.072,-0.567C0.071,-0.566 0.07,-0.565 0.07,-0.565C0.067,-0.564 0.066,-0.562 0.068,-0.56C0.065,-0.558 0.063,-0.558 0.062,-0.559C0.061,-0.559 0.06,-0.559 0.059,-0.56C0.058,-0.561 0.057,-0.561 0.056,-0.562C0.057,-0.563 0.059,-0.564 0.062,-0.567C0.064,-0.569 0.067,-0.57 0.07,-0.57L0.072,-0.57L0.076,-0.568ZM0.041,-0.558L0.041,-0.562L0.054,-0.56L0.041,-0.558ZM0.078,-0.544C0.073,-0.545 0.071,-0.546 0.071,-0.548C0.07,-0.549 0.071,-0.551 0.074,-0.554L0.076,-0.554L0.078,-0.553L0.082,-0.553L0.082,-0.546L0.078,-0.544ZM0.156,-0.551C0.156,-0.548 0.155,-0.546 0.153,-0.544C0.15,-0.546 0.149,-0.548 0.149,-0.55L0.152,-0.55L0.156,-0.551ZM0.045,-0.541L0.045,-0.545L0.051,-0.545L0.051,-0.541L0.045,-0.541ZM0.114,-0.54C0.113,-0.537 0.11,-0.536 0.104,-0.537C0.103,-0.537 0.102,-0.537 0.101,-0.538L0.098,-0.538C0.097,-0.539 0.095,-0.539 0.092,-0.539C0.094,-0.543 0.097,-0.545 0.1,-0.545C0.101,-0.545 0.106,-0.544 0.114,-0.543L0.114,-0.54ZM0.169,-0.251L0.167,-0.252L0.17,-0.254L0.172,-0.256L0.174,-0.252L0.169,-0.25L0.169,-0.251ZM0.282,-0.244C0.281,-0.243 0.28,-0.242 0.279,-0.242L0.278,-0.241L0.276,-0.242L0.276,-0.244L0.282,-0.244ZM0.174,-0.21C0.174,-0.208 0.173,-0.205 0.172,-0.202C0.171,-0.199 0.169,-0.197 0.168,-0.196C0.169,-0.195 0.17,-0.193 0.17,-0.191C0.169,-0.19 0.169,-0.189 0.17,-0.188C0.17,-0.186 0.17,-0.185 0.17,-0.184C0.17,-0.183 0.171,-0.179 0.172,-0.174L0.175,-0.168C0.175,-0.165 0.173,-0.163 0.17,-0.161L0.172,-0.16C0.172,-0.157 0.172,-0.154 0.173,-0.151C0.173,-0.148 0.173,-0.145 0.172,-0.142C0.171,-0.138 0.172,-0.135 0.175,-0.134C0.173,-0.131 0.171,-0.13 0.169,-0.13C0.171,-0.128 0.172,-0.127 0.172,-0.127C0.173,-0.127 0.174,-0.126 0.174,-0.125L0.173,-0.124C0.172,-0.123 0.171,-0.123 0.17,-0.123L0.163,-0.124L0.159,-0.126C0.158,-0.126 0.157,-0.126 0.156,-0.127L0.159,-0.16C0.16,-0.165 0.16,-0.168 0.159,-0.169L0.159,-0.176C0.162,-0.179 0.163,-0.182 0.163,-0.185C0.163,-0.186 0.162,-0.187 0.16,-0.189C0.159,-0.19 0.158,-0.191 0.157,-0.192C0.157,-0.193 0.158,-0.194 0.159,-0.195L0.162,-0.198C0.161,-0.199 0.16,-0.201 0.16,-0.202C0.16,-0.203 0.16,-0.204 0.161,-0.204L0.162,-0.207C0.161,-0.208 0.161,-0.21 0.161,-0.213C0.161,-0.218 0.164,-0.224 0.169,-0.232C0.169,-0.228 0.17,-0.226 0.172,-0.227C0.175,-0.226 0.176,-0.225 0.176,-0.223L0.175,-0.219L0.174,-0.21ZM0.318,-0.191C0.318,-0.19 0.318,-0.19 0.317,-0.19L0.317,-0.188L0.318,-0.188L0.318,-0.191ZM0.298,-0.152C0.298,-0.151 0.297,-0.15 0.296,-0.149L0.292,-0.15L0.292,-0.153C0.293,-0.152 0.294,-0.152 0.295,-0.152L0.298,-0.152ZM0.171,-0.078C0.168,-0.077 0.167,-0.075 0.168,-0.073C0.168,-0.07 0.167,-0.067 0.165,-0.064L0.16,-0.063C0.157,-0.068 0.155,-0.071 0.155,-0.072C0.154,-0.073 0.153,-0.075 0.153,-0.078C0.153,-0.079 0.154,-0.079 0.155,-0.079C0.156,-0.079 0.156,-0.081 0.154,-0.084C0.155,-0.085 0.155,-0.086 0.155,-0.087L0.156,-0.089L0.157,-0.101C0.157,-0.103 0.157,-0.104 0.156,-0.105C0.155,-0.106 0.155,-0.108 0.155,-0.11C0.154,-0.111 0.155,-0.113 0.157,-0.116C0.159,-0.118 0.161,-0.121 0.163,-0.122C0.164,-0.122 0.164,-0.122 0.165,-0.122C0.165,-0.121 0.165,-0.121 0.166,-0.12L0.169,-0.119L0.171,-0.078Z" style="fill:white;fill-rule:nonzero;"/>
                </g>
                <g transform="matrix(52.1251,0,0,52.1251,158.47,232)">
                    <path d="M0.471,-0.102C0.473,-0.099 0.474,-0.096 0.474,-0.092C0.474,-0.086 0.471,-0.081 0.464,-0.076L0.354,-0.004C0.35,-0.001 0.345,0 0.338,-0.001C0.331,-0.003 0.327,-0.007 0.325,-0.012C0.299,-0.069 0.281,-0.105 0.272,-0.12L0.272,-0.121C0.253,-0.154 0.239,-0.179 0.229,-0.196L0.212,-0.224L0.156,-0.209L0.153,-0.027C0.153,-0.014 0.146,-0.007 0.133,-0.007L0.01,-0.007C0.004,-0.007 -0.001,-0.009 -0.005,-0.013C-0.008,-0.017 -0.01,-0.022 -0.01,-0.028L0.031,-0.647C0.032,-0.658 0.037,-0.664 0.048,-0.666L0.199,-0.685L0.2,-0.685L0.228,-0.688C0.255,-0.691 0.275,-0.692 0.29,-0.692C0.319,-0.692 0.345,-0.689 0.366,-0.684C0.404,-0.676 0.433,-0.656 0.453,-0.623C0.473,-0.59 0.483,-0.552 0.483,-0.508C0.483,-0.475 0.477,-0.441 0.466,-0.407C0.455,-0.375 0.436,-0.346 0.411,-0.32C0.396,-0.306 0.383,-0.295 0.372,-0.288L0.471,-0.102ZM0.254,-0.633L0.254,-0.635L0.245,-0.635L0.245,-0.633L0.254,-0.633ZM0.246,-0.626L0.246,-0.623L0.251,-0.623C0.251,-0.624 0.252,-0.625 0.253,-0.626L0.254,-0.627L0.247,-0.627L0.246,-0.626ZM0.296,-0.622C0.296,-0.623 0.295,-0.623 0.294,-0.623C0.293,-0.623 0.292,-0.624 0.292,-0.625L0.292,-0.62L0.296,-0.622ZM0.278,-0.618L0.28,-0.62L0.278,-0.62L0.276,-0.618L0.278,-0.618ZM0.257,-0.616C0.258,-0.616 0.259,-0.616 0.259,-0.615C0.259,-0.614 0.259,-0.614 0.26,-0.614C0.261,-0.614 0.262,-0.614 0.262,-0.615L0.262,-0.616L0.257,-0.616ZM0.236,-0.611C0.232,-0.608 0.231,-0.604 0.234,-0.601L0.241,-0.601L0.241,-0.602C0.241,-0.605 0.239,-0.608 0.236,-0.611ZM0.343,-0.611C0.342,-0.61 0.343,-0.609 0.344,-0.608C0.345,-0.607 0.346,-0.606 0.347,-0.606C0.348,-0.606 0.348,-0.607 0.348,-0.608C0.348,-0.608 0.348,-0.608 0.349,-0.609C0.35,-0.609 0.35,-0.609 0.35,-0.61L0.343,-0.611ZM0.325,-0.609C0.322,-0.606 0.32,-0.603 0.319,-0.602L0.32,-0.602L0.321,-0.601L0.322,-0.601C0.325,-0.603 0.327,-0.605 0.327,-0.606C0.327,-0.607 0.326,-0.608 0.325,-0.609ZM0.066,-0.601L0.066,-0.606L0.064,-0.606L0.064,-0.601L0.066,-0.601ZM0.276,-0.606C0.276,-0.606 0.275,-0.605 0.272,-0.602L0.282,-0.601L0.284,-0.604L0.28,-0.605C0.28,-0.606 0.279,-0.606 0.276,-0.606ZM0.29,-0.604C0.29,-0.603 0.29,-0.602 0.291,-0.601L0.292,-0.599L0.298,-0.599L0.298,-0.604L0.29,-0.604ZM0.374,-0.601L0.374,-0.604L0.37,-0.604L0.37,-0.601L0.374,-0.601ZM0.234,-0.594L0.233,-0.596L0.23,-0.594L0.23,-0.592L0.234,-0.594ZM0.308,-0.592C0.309,-0.593 0.309,-0.594 0.308,-0.594L0.306,-0.596C0.305,-0.595 0.304,-0.594 0.304,-0.594L0.304,-0.592L0.308,-0.592ZM0.276,-0.588L0.278,-0.588L0.278,-0.592L0.276,-0.592L0.276,-0.588ZM0.29,-0.584C0.289,-0.583 0.287,-0.581 0.284,-0.58L0.28,-0.577L0.29,-0.577L0.29,-0.584ZM0.312,-0.581C0.311,-0.582 0.307,-0.583 0.302,-0.583C0.302,-0.582 0.303,-0.582 0.304,-0.582C0.305,-0.581 0.305,-0.581 0.306,-0.58C0.306,-0.58 0.307,-0.58 0.31,-0.579L0.311,-0.579L0.311,-0.58L0.312,-0.581ZM0.327,-0.578C0.326,-0.578 0.326,-0.578 0.325,-0.578C0.324,-0.577 0.324,-0.577 0.323,-0.577L0.325,-0.572L0.329,-0.574L0.331,-0.576L0.327,-0.578ZM0.378,-0.568C0.378,-0.571 0.376,-0.573 0.373,-0.576L0.373,-0.566L0.378,-0.568ZM0.332,-0.572C0.329,-0.571 0.328,-0.569 0.328,-0.568C0.328,-0.567 0.329,-0.566 0.332,-0.566L0.337,-0.565C0.338,-0.568 0.338,-0.572 0.337,-0.575L0.332,-0.572ZM0.204,-0.568C0.205,-0.565 0.206,-0.563 0.206,-0.562L0.208,-0.556L0.212,-0.558L0.211,-0.561L0.21,-0.563L0.21,-0.566C0.21,-0.567 0.211,-0.568 0.213,-0.568L0.204,-0.568ZM0.338,-0.561C0.335,-0.562 0.333,-0.563 0.332,-0.563L0.331,-0.558L0.332,-0.557L0.336,-0.557L0.336,-0.558L0.338,-0.558L0.338,-0.561ZM0.382,-0.55C0.384,-0.551 0.384,-0.553 0.383,-0.557C0.379,-0.555 0.376,-0.553 0.374,-0.551L0.382,-0.55ZM0.39,-0.548C0.39,-0.547 0.391,-0.546 0.392,-0.545C0.393,-0.544 0.394,-0.543 0.395,-0.543C0.394,-0.546 0.393,-0.547 0.392,-0.547L0.39,-0.548ZM0.165,-0.378C0.198,-0.383 0.227,-0.39 0.25,-0.401C0.273,-0.412 0.29,-0.429 0.303,-0.454C0.314,-0.477 0.319,-0.494 0.319,-0.505C0.319,-0.512 0.318,-0.519 0.315,-0.524L0.315,-0.525C0.312,-0.532 0.305,-0.538 0.292,-0.541L0.279,-0.542C0.27,-0.542 0.26,-0.541 0.25,-0.538L0.18,-0.522L0.165,-0.378ZM0.36,-0.526C0.36,-0.527 0.36,-0.528 0.359,-0.529L0.355,-0.53L0.355,-0.526L0.36,-0.526ZM0.359,-0.514C0.361,-0.516 0.362,-0.518 0.362,-0.52L0.358,-0.52L0.354,-0.518C0.353,-0.517 0.352,-0.516 0.353,-0.516L0.359,-0.514ZM0.373,-0.516C0.376,-0.516 0.378,-0.517 0.378,-0.52L0.373,-0.52L0.373,-0.516ZM0.447,-0.506C0.447,-0.504 0.446,-0.503 0.445,-0.503C0.446,-0.502 0.447,-0.502 0.448,-0.502C0.448,-0.502 0.449,-0.502 0.45,-0.501L0.456,-0.5C0.456,-0.501 0.456,-0.502 0.457,-0.502C0.458,-0.503 0.458,-0.504 0.458,-0.505C0.458,-0.508 0.457,-0.511 0.454,-0.514L0.454,-0.506L0.447,-0.506ZM0.369,-0.508C0.369,-0.507 0.368,-0.507 0.367,-0.507L0.374,-0.505L0.373,-0.507C0.372,-0.508 0.371,-0.508 0.37,-0.508L0.369,-0.508ZM0.373,-0.498L0.374,-0.498L0.371,-0.501L0.37,-0.5L0.373,-0.498ZM0.456,-0.498L0.454,-0.498L0.454,-0.475L0.456,-0.475L0.456,-0.498ZM0.455,-0.454C0.455,-0.457 0.457,-0.46 0.46,-0.463C0.457,-0.464 0.455,-0.465 0.455,-0.468C0.456,-0.469 0.455,-0.471 0.454,-0.474L0.454,-0.403C0.457,-0.407 0.458,-0.411 0.458,-0.415L0.457,-0.427C0.456,-0.43 0.456,-0.433 0.456,-0.437C0.456,-0.44 0.456,-0.441 0.457,-0.442C0.457,-0.445 0.456,-0.448 0.455,-0.452L0.455,-0.454ZM0.352,-0.456C0.35,-0.461 0.346,-0.463 0.341,-0.463L0.352,-0.456ZM0.36,-0.448L0.36,-0.445L0.369,-0.445L0.369,-0.448L0.36,-0.448ZM0.343,-0.435C0.343,-0.436 0.342,-0.437 0.341,-0.438C0.339,-0.439 0.337,-0.44 0.336,-0.44L0.334,-0.433L0.343,-0.435ZM0.096,-0.42C0.095,-0.422 0.094,-0.424 0.092,-0.426C0.091,-0.427 0.09,-0.428 0.09,-0.43C0.089,-0.428 0.085,-0.426 0.08,-0.425L0.088,-0.423C0.091,-0.422 0.092,-0.421 0.092,-0.42L0.096,-0.42ZM0.316,-0.42C0.317,-0.42 0.318,-0.42 0.32,-0.419C0.322,-0.418 0.324,-0.417 0.325,-0.418C0.326,-0.419 0.327,-0.42 0.328,-0.421L0.328,-0.426L0.32,-0.427C0.319,-0.426 0.318,-0.426 0.317,-0.426C0.316,-0.425 0.316,-0.425 0.317,-0.425C0.316,-0.425 0.315,-0.424 0.315,-0.422L0.316,-0.42ZM0.074,-0.424C0.074,-0.423 0.075,-0.422 0.076,-0.421L0.078,-0.422L0.078,-0.423C0.079,-0.424 0.08,-0.425 0.08,-0.426L0.074,-0.426L0.074,-0.424ZM0.096,-0.411C0.095,-0.412 0.093,-0.413 0.091,-0.415C0.088,-0.416 0.086,-0.417 0.084,-0.417L0.08,-0.415C0.077,-0.414 0.075,-0.412 0.074,-0.411L0.078,-0.41C0.079,-0.409 0.081,-0.408 0.082,-0.408L0.096,-0.411ZM0.342,-0.415L0.34,-0.411L0.344,-0.41L0.346,-0.414L0.342,-0.415ZM0.278,-0.401C0.277,-0.401 0.275,-0.401 0.274,-0.4C0.273,-0.399 0.272,-0.397 0.272,-0.396C0.273,-0.395 0.275,-0.394 0.278,-0.394L0.278,-0.389C0.279,-0.389 0.283,-0.39 0.288,-0.392C0.285,-0.394 0.282,-0.395 0.278,-0.395L0.278,-0.397C0.279,-0.398 0.279,-0.4 0.278,-0.401ZM0.314,-0.396L0.312,-0.4L0.306,-0.394L0.314,-0.394L0.314,-0.396ZM0.076,-0.398L0.074,-0.398L0.076,-0.391L0.078,-0.391L0.076,-0.398ZM0.296,-0.387C0.298,-0.39 0.298,-0.393 0.296,-0.396L0.29,-0.396C0.293,-0.391 0.295,-0.388 0.296,-0.387ZM0.076,-0.389L0.074,-0.385L0.076,-0.384L0.078,-0.388L0.076,-0.389ZM0.102,-0.387L0.102,-0.383L0.107,-0.383L0.107,-0.387L0.102,-0.387ZM0.234,-0.386L0.234,-0.382L0.239,-0.383L0.234,-0.386ZM0.288,-0.383C0.284,-0.381 0.281,-0.379 0.278,-0.376L0.286,-0.376L0.302,-0.372L0.301,-0.373L0.3,-0.375L0.3,-0.376L0.29,-0.376L0.288,-0.383ZM0.306,-0.366C0.307,-0.366 0.308,-0.366 0.308,-0.367C0.308,-0.369 0.308,-0.37 0.307,-0.371L0.304,-0.374C0.301,-0.37 0.3,-0.367 0.302,-0.365L0.306,-0.366ZM0.284,-0.356C0.285,-0.356 0.287,-0.355 0.288,-0.354C0.292,-0.357 0.294,-0.36 0.294,-0.362L0.293,-0.364L0.292,-0.365C0.291,-0.366 0.291,-0.367 0.29,-0.37L0.288,-0.368L0.286,-0.368L0.284,-0.366L0.284,-0.356ZM0.062,-0.365C0.061,-0.365 0.061,-0.364 0.061,-0.363L0.066,-0.363C0.066,-0.364 0.065,-0.365 0.062,-0.368L0.062,-0.365ZM0.322,-0.357L0.322,-0.361L0.314,-0.359L0.314,-0.356L0.322,-0.357ZM0.304,-0.355C0.299,-0.355 0.296,-0.354 0.296,-0.351C0.296,-0.349 0.298,-0.348 0.302,-0.348L0.304,-0.348L0.304,-0.355ZM0.092,-0.354L0.086,-0.352L0.086,-0.351L0.094,-0.353L0.092,-0.354ZM0.22,-0.346C0.22,-0.346 0.221,-0.347 0.224,-0.35L0.22,-0.353C0.217,-0.352 0.216,-0.351 0.216,-0.348L0.22,-0.346ZM0.308,-0.348C0.304,-0.346 0.302,-0.344 0.302,-0.341L0.308,-0.341C0.311,-0.343 0.311,-0.345 0.308,-0.348ZM0.3,-0.339C0.3,-0.341 0.299,-0.343 0.296,-0.344C0.295,-0.344 0.293,-0.343 0.292,-0.343C0.291,-0.342 0.29,-0.341 0.29,-0.34C0.291,-0.339 0.293,-0.339 0.296,-0.339L0.3,-0.339ZM0.325,-0.337C0.325,-0.338 0.324,-0.338 0.323,-0.338L0.322,-0.339L0.32,-0.34L0.313,-0.34C0.314,-0.337 0.315,-0.335 0.315,-0.332C0.317,-0.331 0.319,-0.331 0.32,-0.332L0.325,-0.332L0.325,-0.337ZM0.216,-0.324L0.212,-0.324L0.212,-0.322L0.216,-0.322L0.216,-0.324ZM0.314,-0.318C0.317,-0.318 0.318,-0.318 0.319,-0.319C0.32,-0.32 0.321,-0.321 0.321,-0.322C0.32,-0.323 0.317,-0.324 0.312,-0.324L0.314,-0.318ZM0.216,-0.308C0.216,-0.307 0.216,-0.306 0.217,-0.306L0.22,-0.306C0.221,-0.309 0.221,-0.311 0.22,-0.311C0.217,-0.311 0.216,-0.31 0.216,-0.308ZM0.313,-0.306C0.31,-0.303 0.308,-0.3 0.308,-0.297L0.31,-0.296L0.317,-0.296L0.315,-0.302L0.313,-0.306ZM0.318,-0.295L0.315,-0.291L0.319,-0.29L0.322,-0.294L0.318,-0.295ZM0.327,-0.286C0.33,-0.286 0.333,-0.287 0.336,-0.289L0.327,-0.291C0.326,-0.288 0.326,-0.287 0.327,-0.286ZM0.313,-0.289C0.31,-0.291 0.307,-0.291 0.304,-0.288C0.305,-0.287 0.308,-0.286 0.311,-0.286C0.312,-0.286 0.313,-0.287 0.313,-0.288L0.313,-0.289ZM0.222,-0.271L0.22,-0.27L0.221,-0.268L0.223,-0.268L0.222,-0.271ZM0.329,-0.232C0.329,-0.234 0.329,-0.235 0.328,-0.236L0.326,-0.234L0.325,-0.234L0.329,-0.232ZM0.412,-0.187C0.413,-0.187 0.414,-0.188 0.414,-0.19L0.409,-0.19L0.412,-0.187ZM0.417,-0.181L0.412,-0.181L0.412,-0.175C0.414,-0.173 0.417,-0.172 0.42,-0.172C0.419,-0.174 0.418,-0.176 0.418,-0.178L0.417,-0.181ZM0.422,-0.16L0.42,-0.157L0.422,-0.156L0.424,-0.159L0.422,-0.16ZM0.437,-0.119C0.437,-0.122 0.435,-0.123 0.431,-0.124C0.429,-0.122 0.428,-0.121 0.428,-0.12C0.428,-0.118 0.429,-0.116 0.431,-0.115C0.432,-0.113 0.434,-0.112 0.435,-0.112L0.437,-0.119ZM0.41,-0.104C0.411,-0.104 0.413,-0.104 0.416,-0.105C0.418,-0.106 0.42,-0.107 0.421,-0.108L0.418,-0.109L0.415,-0.111C0.414,-0.112 0.411,-0.112 0.408,-0.112C0.407,-0.112 0.405,-0.112 0.404,-0.111C0.403,-0.11 0.402,-0.109 0.402,-0.108C0.405,-0.105 0.407,-0.104 0.41,-0.104ZM0.066,-0.046C0.069,-0.046 0.071,-0.047 0.072,-0.05L0.068,-0.05C0.068,-0.047 0.067,-0.046 0.066,-0.046Z" style="fill:white;fill-rule:nonzero;"/>
                </g>
                <g transform="matrix(52.1251,0,0,52.1251,186.93,232)">
                    <path d="M0.553,-0.02C0.553,-0.015 0.551,-0.01 0.548,-0.006C0.544,-0.002 0.539,-0 0.533,-0L0.382,-0C0.37,-0 0.363,-0.006 0.362,-0.018L0.352,-0.14L0.201,-0.11L0.179,-0.018C0.176,-0.008 0.17,-0.003 0.159,-0.003L0.011,-0.006C0.004,-0.006 -0.001,-0.009 -0.005,-0.014C-0.008,-0.019 -0.009,-0.025 -0.008,-0.032C0.009,-0.095 0.032,-0.173 0.061,-0.268C0.076,-0.318 0.097,-0.375 0.122,-0.439C0.145,-0.498 0.177,-0.574 0.216,-0.666C0.219,-0.672 0.224,-0.676 0.231,-0.678L0.252,-0.682C0.272,-0.686 0.287,-0.689 0.298,-0.69C0.304,-0.691 0.314,-0.692 0.328,-0.692C0.341,-0.692 0.35,-0.692 0.356,-0.691C0.388,-0.688 0.414,-0.665 0.433,-0.622C0.439,-0.606 0.446,-0.583 0.454,-0.553C0.463,-0.517 0.471,-0.48 0.478,-0.443L0.553,-0.024L0.553,-0.02ZM0.24,-0.648L0.24,-0.654L0.236,-0.654L0.236,-0.648L0.24,-0.648ZM0.361,-0.622L0.361,-0.63L0.358,-0.63L0.358,-0.622L0.361,-0.622ZM0.353,-0.605C0.354,-0.608 0.355,-0.61 0.355,-0.613C0.352,-0.613 0.35,-0.613 0.35,-0.614L0.35,-0.608L0.353,-0.605ZM0.237,-0.609L0.237,-0.596C0.237,-0.599 0.239,-0.603 0.242,-0.608L0.239,-0.608L0.237,-0.609ZM0.369,-0.606C0.37,-0.607 0.371,-0.608 0.372,-0.608L0.361,-0.609L0.361,-0.605C0.362,-0.604 0.362,-0.603 0.362,-0.602L0.366,-0.602C0.366,-0.603 0.367,-0.604 0.369,-0.606ZM0.361,-0.602L0.361,-0.604L0.359,-0.608L0.359,-0.605L0.361,-0.602ZM0.38,-0.597C0.377,-0.597 0.375,-0.595 0.373,-0.59L0.375,-0.588L0.388,-0.588L0.392,-0.59C0.389,-0.592 0.387,-0.594 0.387,-0.596L0.389,-0.599C0.385,-0.598 0.382,-0.597 0.38,-0.597ZM0.377,-0.57C0.374,-0.57 0.373,-0.569 0.373,-0.566C0.374,-0.565 0.376,-0.564 0.378,-0.564C0.379,-0.564 0.38,-0.563 0.383,-0.562C0.384,-0.563 0.385,-0.564 0.385,-0.565L0.386,-0.567C0.383,-0.569 0.38,-0.57 0.377,-0.57ZM0.296,-0.561L0.297,-0.564L0.296,-0.564L0.294,-0.562L0.296,-0.561ZM0.307,-0.551L0.312,-0.551C0.313,-0.55 0.313,-0.55 0.314,-0.551C0.315,-0.551 0.315,-0.551 0.316,-0.551C0.316,-0.554 0.315,-0.556 0.314,-0.557C0.313,-0.557 0.313,-0.557 0.312,-0.557C0.311,-0.556 0.311,-0.556 0.31,-0.556L0.306,-0.556L0.307,-0.551ZM0.394,-0.538C0.394,-0.537 0.392,-0.536 0.389,-0.535C0.388,-0.535 0.387,-0.534 0.387,-0.532C0.387,-0.531 0.388,-0.53 0.389,-0.529L0.395,-0.529C0.398,-0.53 0.399,-0.532 0.399,-0.533C0.399,-0.536 0.397,-0.538 0.394,-0.538ZM0.174,-0.499C0.175,-0.5 0.174,-0.5 0.172,-0.498C0.169,-0.496 0.168,-0.495 0.168,-0.494C0.168,-0.492 0.169,-0.49 0.171,-0.487C0.172,-0.484 0.173,-0.483 0.174,-0.483C0.175,-0.485 0.175,-0.488 0.175,-0.491C0.175,-0.495 0.175,-0.498 0.174,-0.499ZM0.243,-0.484C0.243,-0.484 0.243,-0.484 0.244,-0.485C0.244,-0.485 0.244,-0.485 0.245,-0.485C0.247,-0.484 0.248,-0.485 0.249,-0.486L0.244,-0.488C0.243,-0.488 0.243,-0.487 0.243,-0.486L0.243,-0.484ZM0.173,-0.458L0.177,-0.458L0.177,-0.47L0.173,-0.469L0.173,-0.458ZM0.29,-0.465C0.285,-0.465 0.281,-0.463 0.278,-0.458C0.279,-0.453 0.281,-0.451 0.283,-0.45C0.285,-0.449 0.288,-0.45 0.292,-0.452L0.295,-0.46L0.294,-0.462C0.294,-0.463 0.293,-0.464 0.292,-0.465L0.29,-0.465ZM0.398,-0.462L0.405,-0.462L0.405,-0.464L0.398,-0.464L0.398,-0.462ZM0.409,-0.446C0.409,-0.449 0.407,-0.451 0.403,-0.451L0.402,-0.448L0.403,-0.446L0.409,-0.446ZM0.322,-0.336C0.319,-0.357 0.317,-0.373 0.315,-0.384C0.31,-0.412 0.305,-0.433 0.302,-0.447L0.253,-0.286L0.328,-0.288L0.322,-0.336ZM0.279,-0.433L0.281,-0.432L0.284,-0.44L0.282,-0.441L0.279,-0.433ZM0.376,-0.433L0.378,-0.434L0.376,-0.436L0.373,-0.435L0.376,-0.433ZM0.251,-0.375C0.253,-0.376 0.255,-0.379 0.258,-0.382C0.26,-0.385 0.261,-0.387 0.262,-0.389L0.264,-0.397L0.274,-0.418L0.269,-0.42L0.264,-0.416C0.261,-0.413 0.26,-0.412 0.259,-0.412C0.256,-0.399 0.254,-0.393 0.254,-0.394C0.252,-0.389 0.251,-0.387 0.25,-0.387C0.25,-0.386 0.249,-0.384 0.247,-0.383C0.246,-0.382 0.245,-0.379 0.244,-0.376L0.237,-0.354L0.233,-0.34C0.231,-0.334 0.228,-0.329 0.224,-0.324C0.22,-0.319 0.218,-0.315 0.217,-0.312C0.216,-0.309 0.215,-0.307 0.215,-0.306C0.214,-0.303 0.213,-0.3 0.213,-0.297C0.212,-0.293 0.21,-0.288 0.207,-0.283C0.204,-0.278 0.203,-0.274 0.202,-0.271C0.202,-0.266 0.203,-0.264 0.204,-0.264C0.206,-0.263 0.208,-0.263 0.209,-0.264C0.209,-0.264 0.21,-0.265 0.212,-0.267C0.215,-0.273 0.217,-0.279 0.218,-0.284C0.219,-0.29 0.221,-0.295 0.225,-0.3C0.225,-0.302 0.227,-0.305 0.231,-0.309L0.235,-0.32C0.236,-0.322 0.238,-0.327 0.241,-0.336C0.244,-0.345 0.247,-0.354 0.251,-0.363L0.251,-0.375ZM0.389,-0.398L0.39,-0.399L0.383,-0.4L0.383,-0.396L0.389,-0.396L0.389,-0.398ZM0.409,-0.389L0.403,-0.391L0.403,-0.389L0.409,-0.387L0.409,-0.389ZM0.361,-0.384C0.362,-0.383 0.363,-0.382 0.364,-0.382C0.365,-0.382 0.366,-0.383 0.366,-0.384L0.361,-0.384ZM0.413,-0.349C0.416,-0.349 0.418,-0.35 0.418,-0.353L0.413,-0.349ZM0.349,-0.346C0.349,-0.347 0.348,-0.348 0.347,-0.349L0.343,-0.35L0.343,-0.346L0.349,-0.346ZM0.385,-0.336C0.384,-0.341 0.38,-0.345 0.373,-0.346C0.371,-0.345 0.37,-0.343 0.37,-0.34L0.376,-0.34C0.373,-0.338 0.372,-0.336 0.375,-0.333L0.384,-0.333L0.384,-0.336L0.385,-0.336ZM0.411,-0.342C0.415,-0.342 0.417,-0.343 0.417,-0.344C0.416,-0.344 0.416,-0.344 0.416,-0.345C0.415,-0.345 0.415,-0.345 0.415,-0.346L0.413,-0.346C0.412,-0.346 0.411,-0.345 0.411,-0.344L0.411,-0.342ZM0.398,-0.342C0.399,-0.341 0.4,-0.34 0.401,-0.34L0.403,-0.343C0.403,-0.344 0.401,-0.344 0.397,-0.344L0.398,-0.342ZM0.411,-0.331C0.414,-0.33 0.416,-0.329 0.417,-0.329C0.42,-0.329 0.424,-0.33 0.427,-0.332C0.424,-0.335 0.422,-0.336 0.419,-0.336L0.411,-0.336L0.411,-0.331ZM0.384,-0.319C0.387,-0.319 0.388,-0.319 0.389,-0.318L0.395,-0.318L0.395,-0.323L0.392,-0.324C0.391,-0.325 0.39,-0.325 0.389,-0.325C0.386,-0.324 0.384,-0.322 0.384,-0.319ZM0.344,-0.322L0.344,-0.32L0.352,-0.32L0.352,-0.322L0.344,-0.322ZM0.432,-0.318C0.431,-0.321 0.43,-0.322 0.429,-0.322L0.419,-0.322C0.416,-0.319 0.413,-0.318 0.411,-0.317C0.409,-0.316 0.408,-0.315 0.408,-0.314C0.408,-0.311 0.411,-0.305 0.417,-0.296L0.431,-0.296L0.435,-0.297C0.433,-0.3 0.431,-0.302 0.428,-0.302C0.425,-0.302 0.422,-0.304 0.418,-0.308C0.423,-0.309 0.425,-0.311 0.426,-0.312C0.427,-0.314 0.429,-0.316 0.432,-0.318ZM0.188,-0.319L0.186,-0.31C0.186,-0.307 0.187,-0.305 0.189,-0.304C0.191,-0.307 0.192,-0.31 0.192,-0.312L0.192,-0.319L0.188,-0.319ZM0.386,-0.314L0.385,-0.316L0.378,-0.316L0.378,-0.312L0.383,-0.308L0.383,-0.309L0.385,-0.31L0.387,-0.31L0.386,-0.314ZM0.398,-0.309L0.397,-0.31L0.395,-0.31L0.397,-0.298C0.399,-0.301 0.4,-0.304 0.401,-0.308L0.398,-0.309ZM0.374,-0.304C0.373,-0.305 0.371,-0.305 0.37,-0.305C0.368,-0.304 0.367,-0.304 0.366,-0.304L0.369,-0.299C0.37,-0.3 0.372,-0.3 0.375,-0.3L0.382,-0.299C0.383,-0.299 0.385,-0.3 0.387,-0.301C0.388,-0.302 0.389,-0.303 0.389,-0.304L0.374,-0.304ZM0.364,-0.293L0.363,-0.29L0.365,-0.289L0.366,-0.293L0.364,-0.293ZM0.378,-0.279C0.379,-0.28 0.379,-0.281 0.379,-0.282L0.373,-0.283L0.371,-0.281L0.37,-0.279L0.377,-0.277C0.377,-0.278 0.377,-0.279 0.378,-0.279ZM0.362,-0.279C0.365,-0.279 0.365,-0.28 0.364,-0.281L0.362,-0.279ZM0.418,-0.268C0.418,-0.269 0.417,-0.27 0.415,-0.272L0.412,-0.271C0.411,-0.271 0.411,-0.271 0.411,-0.27L0.417,-0.268L0.418,-0.268ZM0.409,-0.254C0.408,-0.255 0.407,-0.257 0.407,-0.26C0.406,-0.263 0.405,-0.265 0.405,-0.266C0.399,-0.27 0.394,-0.272 0.389,-0.271C0.389,-0.27 0.39,-0.269 0.392,-0.269C0.395,-0.268 0.397,-0.265 0.399,-0.26L0.399,-0.254L0.409,-0.254ZM0.356,-0.264L0.356,-0.26L0.359,-0.26L0.359,-0.264L0.356,-0.264ZM0.45,-0.252L0.45,-0.253L0.444,-0.254L0.444,-0.252L0.45,-0.252ZM0.378,-0.247L0.382,-0.247L0.382,-0.252L0.378,-0.252L0.378,-0.247ZM0.356,-0.243L0.356,-0.245L0.353,-0.245L0.353,-0.243L0.356,-0.243ZM0.318,-0.24L0.318,-0.238L0.323,-0.238L0.323,-0.24L0.318,-0.24ZM0.344,-0.224C0.345,-0.225 0.345,-0.226 0.345,-0.229C0.344,-0.229 0.341,-0.228 0.338,-0.226L0.342,-0.226L0.344,-0.224ZM0.383,-0.228L0.372,-0.217C0.376,-0.215 0.379,-0.214 0.382,-0.214C0.387,-0.217 0.389,-0.22 0.389,-0.222C0.389,-0.223 0.388,-0.224 0.386,-0.226C0.384,-0.226 0.383,-0.227 0.383,-0.228ZM0.398,-0.194L0.403,-0.194L0.403,-0.196L0.398,-0.196L0.398,-0.194ZM0.385,-0.194C0.385,-0.191 0.387,-0.188 0.391,-0.186L0.391,-0.194L0.385,-0.194ZM0.424,-0.187C0.424,-0.186 0.425,-0.184 0.427,-0.182C0.428,-0.179 0.43,-0.178 0.433,-0.178C0.436,-0.178 0.438,-0.178 0.439,-0.179C0.439,-0.179 0.441,-0.179 0.445,-0.18C0.444,-0.181 0.443,-0.182 0.442,-0.182L0.438,-0.185C0.437,-0.186 0.437,-0.189 0.437,-0.194C0.436,-0.191 0.435,-0.19 0.432,-0.19L0.424,-0.187ZM0.2,-0.186L0.2,-0.181L0.211,-0.181L0.211,-0.186L0.2,-0.186ZM0.187,-0.167C0.186,-0.17 0.185,-0.172 0.185,-0.173C0.178,-0.176 0.174,-0.178 0.173,-0.178C0.17,-0.178 0.167,-0.177 0.166,-0.175C0.164,-0.173 0.163,-0.171 0.163,-0.17C0.163,-0.168 0.164,-0.166 0.167,-0.164C0.17,-0.161 0.173,-0.16 0.176,-0.16C0.177,-0.16 0.178,-0.16 0.179,-0.161L0.189,-0.161L0.187,-0.167ZM0.356,-0.178L0.356,-0.174L0.359,-0.174L0.359,-0.178L0.356,-0.178ZM0.469,-0.175L0.469,-0.177L0.465,-0.177L0.465,-0.175L0.469,-0.175ZM0.367,-0.174C0.37,-0.173 0.371,-0.172 0.371,-0.171L0.381,-0.171L0.381,-0.174L0.367,-0.174ZM0.318,-0.173L0.315,-0.172L0.316,-0.17L0.319,-0.171L0.318,-0.173ZM0.485,-0.036C0.487,-0.036 0.489,-0.037 0.49,-0.038L0.482,-0.086L0.478,-0.091L0.476,-0.096C0.476,-0.098 0.478,-0.1 0.481,-0.103C0.475,-0.106 0.472,-0.109 0.473,-0.112C0.474,-0.116 0.475,-0.119 0.475,-0.12C0.475,-0.124 0.474,-0.128 0.471,-0.133C0.469,-0.136 0.468,-0.139 0.468,-0.14C0.468,-0.143 0.469,-0.144 0.471,-0.144C0.472,-0.144 0.472,-0.145 0.472,-0.147C0.472,-0.15 0.471,-0.153 0.469,-0.157L0.462,-0.151L0.455,-0.146L0.452,-0.148L0.452,-0.158C0.452,-0.161 0.455,-0.163 0.461,-0.163L0.465,-0.16L0.465,-0.168C0.463,-0.169 0.46,-0.171 0.457,-0.172C0.454,-0.173 0.451,-0.173 0.45,-0.173C0.447,-0.173 0.443,-0.172 0.438,-0.17C0.433,-0.167 0.431,-0.165 0.431,-0.162C0.431,-0.161 0.432,-0.16 0.433,-0.159L0.437,-0.156C0.435,-0.154 0.435,-0.152 0.437,-0.149L0.441,-0.146C0.442,-0.146 0.442,-0.146 0.443,-0.145C0.443,-0.144 0.443,-0.144 0.443,-0.144C0.441,-0.143 0.439,-0.142 0.436,-0.142C0.43,-0.142 0.427,-0.14 0.427,-0.137C0.426,-0.132 0.425,-0.13 0.425,-0.13C0.426,-0.131 0.428,-0.131 0.43,-0.13C0.431,-0.129 0.432,-0.128 0.431,-0.127C0.431,-0.126 0.43,-0.125 0.429,-0.125C0.428,-0.125 0.428,-0.125 0.428,-0.124C0.428,-0.123 0.428,-0.122 0.427,-0.121L0.425,-0.117L0.425,-0.108C0.426,-0.107 0.429,-0.106 0.436,-0.103C0.442,-0.1 0.442,-0.098 0.436,-0.095C0.438,-0.094 0.442,-0.094 0.448,-0.094C0.45,-0.094 0.452,-0.094 0.453,-0.095L0.459,-0.095L0.459,-0.081L0.458,-0.081L0.458,-0.08L0.457,-0.08L0.463,-0.074C0.463,-0.073 0.464,-0.072 0.465,-0.072C0.465,-0.072 0.466,-0.071 0.468,-0.069L0.469,-0.06C0.47,-0.057 0.473,-0.054 0.476,-0.052C0.476,-0.051 0.476,-0.05 0.475,-0.049L0.475,-0.047C0.475,-0.046 0.476,-0.044 0.479,-0.041C0.482,-0.038 0.484,-0.036 0.485,-0.036ZM0.108,-0.156C0.11,-0.158 0.109,-0.159 0.105,-0.16L0.105,-0.158L0.108,-0.156ZM0.151,-0.14C0.152,-0.141 0.152,-0.143 0.15,-0.145C0.149,-0.144 0.148,-0.142 0.148,-0.14C0.148,-0.139 0.149,-0.139 0.15,-0.139C0.151,-0.139 0.151,-0.139 0.151,-0.14ZM0.417,-0.13C0.418,-0.13 0.418,-0.131 0.418,-0.133L0.411,-0.133C0.411,-0.131 0.411,-0.13 0.412,-0.13C0.412,-0.13 0.413,-0.129 0.415,-0.127C0.415,-0.128 0.415,-0.128 0.416,-0.129C0.416,-0.129 0.416,-0.129 0.417,-0.13ZM0.127,-0.122L0.129,-0.123L0.129,-0.128C0.129,-0.13 0.127,-0.131 0.123,-0.131L0.121,-0.13L0.12,-0.129L0.12,-0.125L0.127,-0.122ZM0.37,-0.13L0.37,-0.126L0.377,-0.126L0.377,-0.13L0.37,-0.13ZM0.395,-0.118C0.395,-0.12 0.394,-0.121 0.393,-0.122C0.391,-0.122 0.39,-0.122 0.389,-0.122L0.389,-0.118L0.395,-0.118ZM0.123,-0.106C0.123,-0.107 0.124,-0.107 0.125,-0.108C0.126,-0.109 0.126,-0.109 0.127,-0.11L0.134,-0.112L0.134,-0.116C0.133,-0.117 0.132,-0.118 0.131,-0.118L0.127,-0.121C0.124,-0.115 0.119,-0.112 0.111,-0.112C0.111,-0.111 0.112,-0.109 0.114,-0.107C0.116,-0.105 0.118,-0.104 0.12,-0.104C0.121,-0.104 0.122,-0.105 0.123,-0.106ZM0.383,-0.111C0.38,-0.112 0.379,-0.112 0.378,-0.113L0.379,-0.106L0.389,-0.108L0.383,-0.111ZM0.163,-0.086C0.164,-0.087 0.165,-0.088 0.165,-0.09L0.163,-0.092C0.162,-0.092 0.161,-0.092 0.161,-0.091L0.159,-0.091L0.155,-0.09L0.159,-0.087L0.163,-0.086ZM0.121,-0.08C0.12,-0.08 0.119,-0.081 0.118,-0.082C0.117,-0.083 0.115,-0.083 0.114,-0.084C0.111,-0.084 0.109,-0.083 0.109,-0.08C0.11,-0.079 0.112,-0.079 0.115,-0.08L0.121,-0.08ZM0.133,-0.076C0.135,-0.078 0.136,-0.079 0.137,-0.079C0.137,-0.082 0.136,-0.083 0.133,-0.084C0.129,-0.082 0.127,-0.081 0.127,-0.08L0.133,-0.076ZM0.401,-0.076C0.401,-0.077 0.4,-0.079 0.397,-0.082L0.392,-0.079L0.39,-0.076L0.401,-0.076ZM0.411,-0.029L0.412,-0.03C0.41,-0.034 0.409,-0.037 0.409,-0.04L0.399,-0.04C0.4,-0.037 0.402,-0.035 0.404,-0.033C0.406,-0.03 0.408,-0.028 0.41,-0.027L0.411,-0.029Z" style="fill:white;fill-rule:nonzero;"/>
                </g>
                <g transform="matrix(52.1251,0,0,52.1251,218.31,232)">
                    <path d="M0.489,-0.661C0.498,-0.658 0.503,-0.652 0.503,-0.644L0.501,-0.636L0.342,-0.122L0.341,-0.124C0.338,-0.123 0.336,-0.121 0.335,-0.12C0.334,-0.117 0.333,-0.115 0.331,-0.113L0.336,-0.11L0.339,-0.11L0.335,-0.099L0.333,-0.096L0.331,-0.091C0.331,-0.09 0.331,-0.089 0.332,-0.088L0.31,-0.018C0.307,-0.009 0.301,-0.004 0.291,-0.003L0.15,-0C0.138,-0 0.131,-0.005 0.129,-0.016L0.057,-0.346L0.019,-0.532L0.021,-0.534L0.018,-0.535L0.007,-0.589L0.007,-0.591L-0.009,-0.666L-0.009,-0.67C-0.009,-0.676 -0.007,-0.681 -0.004,-0.685C0,-0.689 0.005,-0.691 0.011,-0.691L0.13,-0.691C0.141,-0.691 0.147,-0.686 0.15,-0.675L0.168,-0.6L0.162,-0.6L0.162,-0.596C0.163,-0.596 0.163,-0.595 0.163,-0.594L0.169,-0.594L0.169,-0.595L0.171,-0.588L0.167,-0.588L0.167,-0.586L0.171,-0.586L0.233,-0.323L0.35,-0.692C0.351,-0.697 0.355,-0.702 0.36,-0.705C0.365,-0.708 0.371,-0.708 0.376,-0.705L0.384,-0.702C0.38,-0.7 0.378,-0.697 0.378,-0.693L0.378,-0.683C0.378,-0.679 0.378,-0.676 0.377,-0.674C0.376,-0.673 0.374,-0.671 0.371,-0.67C0.366,-0.667 0.364,-0.664 0.366,-0.66C0.367,-0.659 0.367,-0.657 0.367,-0.655C0.367,-0.654 0.367,-0.653 0.366,-0.653C0.364,-0.652 0.363,-0.651 0.363,-0.651L0.363,-0.637C0.375,-0.644 0.382,-0.649 0.384,-0.652C0.384,-0.653 0.385,-0.654 0.386,-0.654L0.39,-0.657C0.392,-0.66 0.393,-0.665 0.393,-0.67C0.393,-0.671 0.392,-0.672 0.391,-0.672L0.39,-0.674L0.39,-0.7L0.489,-0.661ZM0.01,-0.622C0.01,-0.621 0.011,-0.621 0.012,-0.62C0.013,-0.619 0.013,-0.619 0.014,-0.619C0.015,-0.62 0.015,-0.621 0.014,-0.622L0.01,-0.622ZM0.012,-0.614C0.013,-0.612 0.015,-0.612 0.017,-0.614L0.014,-0.615L0.013,-0.614L0.012,-0.614ZM0.062,-0.602C0.062,-0.602 0.064,-0.604 0.065,-0.605L0.064,-0.606L0.063,-0.608L0.06,-0.608L0.057,-0.606C0.058,-0.605 0.059,-0.603 0.062,-0.602ZM0.146,-0.605C0.146,-0.603 0.147,-0.602 0.15,-0.602L0.151,-0.604L0.151,-0.606L0.149,-0.608L0.148,-0.606C0.147,-0.606 0.146,-0.606 0.146,-0.605ZM0.051,-0.599C0.046,-0.6 0.043,-0.601 0.04,-0.601L0.036,-0.6L0.034,-0.597C0.038,-0.596 0.04,-0.595 0.04,-0.592L0.042,-0.593L0.051,-0.599ZM0.076,-0.588L0.076,-0.592C0.077,-0.592 0.078,-0.592 0.078,-0.591L0.08,-0.591C0.081,-0.591 0.083,-0.592 0.085,-0.594L0.081,-0.596L0.077,-0.597L0.074,-0.596C0.073,-0.595 0.072,-0.594 0.071,-0.594L0.071,-0.588L0.076,-0.588ZM0.123,-0.592C0.123,-0.591 0.124,-0.591 0.125,-0.591C0.125,-0.59 0.126,-0.59 0.127,-0.59C0.129,-0.59 0.13,-0.59 0.13,-0.591L0.131,-0.592L0.129,-0.596C0.126,-0.596 0.124,-0.595 0.123,-0.594L0.123,-0.592ZM0.148,-0.59C0.151,-0.588 0.153,-0.588 0.156,-0.589L0.156,-0.591L0.155,-0.593C0.153,-0.591 0.151,-0.59 0.148,-0.59ZM0.138,-0.587C0.137,-0.588 0.136,-0.588 0.133,-0.588L0.127,-0.589L0.127,-0.581L0.131,-0.581C0.131,-0.582 0.132,-0.583 0.134,-0.583L0.138,-0.584L0.138,-0.587ZM0.097,-0.582L0.085,-0.582C0.084,-0.581 0.083,-0.581 0.081,-0.581C0.077,-0.581 0.074,-0.58 0.073,-0.578L0.074,-0.576C0.075,-0.576 0.077,-0.575 0.081,-0.574L0.087,-0.572C0.088,-0.572 0.089,-0.573 0.089,-0.574L0.09,-0.575L0.105,-0.576C0.107,-0.577 0.111,-0.577 0.117,-0.577L0.117,-0.579C0.117,-0.58 0.116,-0.581 0.115,-0.582C0.113,-0.582 0.111,-0.581 0.11,-0.58L0.105,-0.58L0.097,-0.582ZM0.092,-0.57L0.093,-0.57L0.092,-0.572L0.09,-0.571L0.092,-0.57ZM0.116,-0.568L0.115,-0.569L0.105,-0.569C0.104,-0.568 0.103,-0.567 0.103,-0.566C0.103,-0.565 0.103,-0.564 0.105,-0.563C0.106,-0.562 0.107,-0.561 0.109,-0.561C0.114,-0.561 0.117,-0.563 0.117,-0.567L0.117,-0.568L0.116,-0.568ZM0.138,-0.55C0.141,-0.55 0.142,-0.551 0.142,-0.552L0.14,-0.554C0.139,-0.554 0.138,-0.553 0.138,-0.55ZM0.078,-0.537C0.078,-0.538 0.079,-0.539 0.082,-0.542L0.073,-0.543L0.073,-0.54C0.073,-0.539 0.073,-0.539 0.074,-0.539C0.074,-0.538 0.074,-0.538 0.074,-0.537L0.078,-0.537ZM0.089,-0.533C0.087,-0.533 0.085,-0.531 0.083,-0.527L0.086,-0.526L0.095,-0.526C0.097,-0.526 0.098,-0.526 0.099,-0.527C0.096,-0.528 0.095,-0.53 0.095,-0.532L0.097,-0.534L0.089,-0.533ZM0.155,-0.529L0.157,-0.527L0.159,-0.529L0.157,-0.53L0.155,-0.529ZM0.162,-0.508L0.156,-0.511L0.156,-0.502C0.159,-0.502 0.16,-0.501 0.16,-0.499C0.161,-0.499 0.162,-0.5 0.164,-0.502L0.167,-0.505L0.162,-0.508ZM0.093,-0.506L0.095,-0.508C0.092,-0.509 0.089,-0.51 0.087,-0.51C0.084,-0.51 0.083,-0.509 0.083,-0.507C0.083,-0.506 0.084,-0.505 0.087,-0.505L0.092,-0.504L0.093,-0.506ZM0.035,-0.494C0.035,-0.496 0.034,-0.498 0.033,-0.499L0.029,-0.499L0.026,-0.498L0.027,-0.494L0.035,-0.494ZM0.095,-0.478C0.095,-0.477 0.096,-0.476 0.097,-0.475L0.101,-0.475C0.104,-0.476 0.105,-0.478 0.105,-0.479C0.105,-0.481 0.104,-0.482 0.101,-0.482L0.097,-0.481C0.096,-0.48 0.095,-0.479 0.095,-0.478ZM0.134,-0.482L0.129,-0.479C0.129,-0.477 0.131,-0.475 0.134,-0.474C0.135,-0.475 0.136,-0.475 0.139,-0.475L0.139,-0.481L0.134,-0.482ZM0.161,-0.414C0.16,-0.415 0.158,-0.416 0.155,-0.416L0.153,-0.413L0.157,-0.413L0.161,-0.414ZM0.216,-0.352C0.217,-0.352 0.218,-0.352 0.219,-0.351C0.22,-0.35 0.221,-0.35 0.223,-0.35L0.224,-0.354L0.216,-0.352ZM0.341,-0.281L0.341,-0.285C0.34,-0.285 0.34,-0.285 0.339,-0.285C0.338,-0.284 0.337,-0.284 0.336,-0.284L0.336,-0.28L0.341,-0.281ZM0.136,-0.139C0.139,-0.139 0.139,-0.14 0.138,-0.141C0.138,-0.147 0.138,-0.151 0.137,-0.154L0.134,-0.164C0.133,-0.166 0.132,-0.171 0.129,-0.181C0.126,-0.19 0.123,-0.197 0.122,-0.203L0.119,-0.216L0.117,-0.222L0.116,-0.233C0.115,-0.234 0.115,-0.236 0.115,-0.238L0.113,-0.25C0.111,-0.254 0.109,-0.257 0.108,-0.258C0.105,-0.26 0.102,-0.262 0.101,-0.264L0.133,-0.136C0.133,-0.137 0.134,-0.138 0.136,-0.139ZM0.286,-0.24C0.288,-0.24 0.293,-0.241 0.3,-0.244C0.297,-0.245 0.295,-0.246 0.294,-0.246L0.279,-0.244L0.282,-0.24L0.286,-0.24ZM0.266,-0.24C0.265,-0.241 0.263,-0.242 0.261,-0.241L0.258,-0.24L0.266,-0.24ZM0.341,-0.229C0.34,-0.23 0.339,-0.23 0.336,-0.23L0.335,-0.229L0.334,-0.227C0.334,-0.226 0.335,-0.225 0.337,-0.224L0.335,-0.224C0.339,-0.222 0.342,-0.222 0.345,-0.224L0.345,-0.229L0.341,-0.229ZM0.273,-0.202C0.275,-0.202 0.277,-0.201 0.278,-0.2C0.279,-0.201 0.28,-0.203 0.28,-0.205C0.277,-0.205 0.275,-0.205 0.274,-0.204L0.268,-0.204L0.273,-0.202ZM0.297,-0.165C0.297,-0.165 0.296,-0.166 0.294,-0.168C0.292,-0.168 0.291,-0.169 0.291,-0.17C0.288,-0.169 0.286,-0.167 0.286,-0.166L0.291,-0.165L0.297,-0.165ZM0.271,-0.164L0.267,-0.164L0.267,-0.163L0.27,-0.162L0.271,-0.164ZM0.339,-0.152C0.342,-0.153 0.344,-0.154 0.343,-0.154L0.343,-0.157L0.339,-0.159L0.336,-0.16L0.335,-0.158C0.334,-0.157 0.333,-0.156 0.333,-0.155C0.333,-0.153 0.334,-0.152 0.335,-0.152C0.336,-0.152 0.336,-0.151 0.336,-0.15C0.337,-0.151 0.338,-0.152 0.339,-0.152ZM0.25,-0.154C0.247,-0.154 0.245,-0.153 0.242,-0.15C0.243,-0.15 0.244,-0.15 0.244,-0.149L0.246,-0.147L0.253,-0.148L0.253,-0.154L0.25,-0.154ZM0.283,-0.125C0.283,-0.127 0.282,-0.128 0.281,-0.128C0.28,-0.129 0.279,-0.13 0.279,-0.131L0.273,-0.13L0.271,-0.129C0.271,-0.125 0.273,-0.122 0.278,-0.12C0.279,-0.121 0.28,-0.121 0.283,-0.121L0.283,-0.125ZM0.179,-0.063C0.179,-0.064 0.18,-0.064 0.182,-0.064L0.181,-0.069C0.178,-0.068 0.175,-0.066 0.172,-0.063L0.175,-0.062C0.177,-0.062 0.178,-0.062 0.179,-0.063ZM0.131,-0.058L0.124,-0.056L0.125,-0.054L0.132,-0.056L0.131,-0.058Z" style="fill:white;fill-rule:nonzero;"/>
                </g>
                <g transform="matrix(52.1251,0,0,52.1251,247.083,232)">
                    <path d="M0.455,-0.697C0.462,-0.697 0.467,-0.695 0.471,-0.691C0.475,-0.687 0.477,-0.682 0.477,-0.676L0.474,-0.557C0.473,-0.544 0.466,-0.538 0.455,-0.537L0.18,-0.508L0.173,-0.425L0.379,-0.436L0.379,-0.338L0.383,-0.338L0.383,-0.436C0.388,-0.436 0.393,-0.434 0.398,-0.43C0.402,-0.426 0.404,-0.421 0.404,-0.416L0.404,-0.312C0.404,-0.301 0.398,-0.294 0.387,-0.292L0.168,-0.263L0.163,-0.18L0.43,-0.188C0.436,-0.188 0.441,-0.186 0.445,-0.182C0.449,-0.178 0.451,-0.173 0.451,-0.168L0.451,-0.042C0.451,-0.029 0.445,-0.023 0.432,-0.022L0.011,-0C0.005,-0 0,-0.002 -0.004,-0.006C-0.008,-0.009 -0.01,-0.014 -0.01,-0.021C-0.009,-0.12 -0.006,-0.222 -0.001,-0.329C0.004,-0.427 0.012,-0.537 0.024,-0.66C0.026,-0.672 0.033,-0.678 0.044,-0.678L0.455,-0.697ZM0.17,-0.675L0.172,-0.675L0.172,-0.678L0.17,-0.678L0.17,-0.675ZM0.235,-0.669C0.234,-0.668 0.234,-0.668 0.235,-0.668C0.235,-0.667 0.236,-0.667 0.237,-0.667C0.236,-0.667 0.235,-0.668 0.235,-0.669ZM0.254,-0.652C0.255,-0.653 0.256,-0.655 0.256,-0.656C0.256,-0.659 0.254,-0.66 0.25,-0.66C0.246,-0.66 0.243,-0.659 0.241,-0.656L0.238,-0.652C0.24,-0.653 0.241,-0.655 0.241,-0.656L0.246,-0.657C0.25,-0.656 0.252,-0.655 0.252,-0.652L0.252,-0.648C0.252,-0.649 0.253,-0.651 0.254,-0.652ZM0.404,-0.659L0.402,-0.659L0.402,-0.656L0.404,-0.656L0.404,-0.659ZM0.12,-0.653L0.141,-0.653L0.141,-0.656L0.12,-0.656L0.12,-0.653ZM0.192,-0.656L0.178,-0.656L0.178,-0.655L0.176,-0.655C0.173,-0.654 0.171,-0.653 0.171,-0.652L0.178,-0.652L0.179,-0.653L0.192,-0.653L0.192,-0.656ZM0.159,-0.652L0.162,-0.652L0.162,-0.654L0.159,-0.654L0.159,-0.652ZM0.325,-0.652L0.317,-0.652L0.317,-0.648L0.325,-0.648L0.325,-0.652ZM0.206,-0.648C0.205,-0.648 0.204,-0.646 0.204,-0.643C0.204,-0.643 0.205,-0.644 0.208,-0.647C0.21,-0.649 0.209,-0.649 0.206,-0.648ZM0.272,-0.645L0.268,-0.645L0.268,-0.643L0.272,-0.643L0.272,-0.645ZM0.111,-0.628L0.112,-0.624L0.112,-0.622L0.116,-0.622C0.116,-0.623 0.117,-0.624 0.118,-0.625C0.119,-0.626 0.12,-0.627 0.12,-0.627L0.111,-0.628ZM0.233,-0.614C0.23,-0.615 0.228,-0.617 0.228,-0.618L0.228,-0.619L0.233,-0.624L0.229,-0.622L0.227,-0.622C0.226,-0.622 0.226,-0.622 0.226,-0.622C0.225,-0.621 0.225,-0.621 0.224,-0.621L0.222,-0.621C0.219,-0.62 0.216,-0.617 0.214,-0.613L0.216,-0.611L0.228,-0.611C0.229,-0.611 0.229,-0.611 0.23,-0.612C0.23,-0.612 0.23,-0.612 0.23,-0.612L0.231,-0.612L0.233,-0.614ZM0.267,-0.611L0.268,-0.611L0.269,-0.61L0.27,-0.613L0.267,-0.613L0.267,-0.611ZM0.21,-0.604L0.208,-0.61C0.203,-0.608 0.2,-0.606 0.2,-0.604C0.202,-0.603 0.203,-0.603 0.204,-0.604L0.21,-0.604ZM0.254,-0.596C0.254,-0.597 0.252,-0.599 0.249,-0.602L0.246,-0.596L0.254,-0.596ZM0.295,-0.595C0.295,-0.596 0.294,-0.597 0.293,-0.598L0.291,-0.6C0.286,-0.598 0.283,-0.596 0.283,-0.594L0.295,-0.595ZM0.228,-0.594C0.224,-0.596 0.221,-0.597 0.219,-0.597C0.216,-0.597 0.214,-0.595 0.214,-0.592L0.219,-0.589L0.222,-0.588L0.223,-0.588C0.224,-0.588 0.225,-0.589 0.225,-0.591L0.228,-0.594ZM0.267,-0.586C0.268,-0.585 0.27,-0.585 0.272,-0.586C0.272,-0.59 0.271,-0.592 0.268,-0.593L0.26,-0.591L0.262,-0.586L0.267,-0.586ZM0.057,-0.589L0.056,-0.589L0.054,-0.588L0.056,-0.587L0.057,-0.589ZM0.243,-0.58C0.245,-0.58 0.246,-0.581 0.246,-0.584C0.246,-0.587 0.244,-0.588 0.241,-0.588L0.239,-0.587L0.238,-0.587L0.237,-0.586C0.236,-0.585 0.235,-0.583 0.235,-0.582L0.236,-0.58L0.243,-0.58ZM0.392,-0.587L0.39,-0.587L0.39,-0.582L0.392,-0.582L0.392,-0.587ZM0.241,-0.538L0.239,-0.538L0.239,-0.535L0.241,-0.535L0.241,-0.538ZM0.16,-0.535C0.159,-0.535 0.158,-0.534 0.158,-0.532L0.16,-0.532L0.161,-0.533C0.16,-0.533 0.16,-0.534 0.16,-0.535ZM0.154,-0.486C0.153,-0.485 0.152,-0.484 0.152,-0.484L0.157,-0.483C0.158,-0.484 0.158,-0.485 0.157,-0.488C0.156,-0.488 0.155,-0.487 0.154,-0.486ZM0.159,-0.466L0.16,-0.467L0.155,-0.468L0.155,-0.467L0.159,-0.466ZM0.165,-0.426L0.17,-0.426L0.17,-0.431L0.165,-0.431L0.165,-0.426ZM0.168,-0.413C0.166,-0.413 0.165,-0.413 0.164,-0.414L0.16,-0.415L0.159,-0.414C0.157,-0.413 0.156,-0.412 0.156,-0.41C0.156,-0.407 0.159,-0.405 0.164,-0.405C0.166,-0.405 0.167,-0.405 0.168,-0.406L0.168,-0.413ZM0.244,-0.407L0.245,-0.407L0.245,-0.408L0.244,-0.407ZM0.387,-0.394C0.389,-0.394 0.391,-0.394 0.392,-0.393L0.397,-0.392L0.401,-0.397L0.401,-0.405C0.4,-0.406 0.399,-0.406 0.398,-0.407C0.396,-0.408 0.394,-0.408 0.393,-0.408L0.387,-0.404L0.387,-0.394ZM0.249,-0.406L0.251,-0.407L0.249,-0.407L0.249,-0.406ZM0.223,-0.396L0.228,-0.392C0.229,-0.393 0.23,-0.394 0.231,-0.396C0.231,-0.397 0.23,-0.398 0.229,-0.399L0.223,-0.396ZM0.249,-0.395L0.253,-0.393L0.255,-0.399L0.251,-0.399L0.249,-0.395ZM0.19,-0.388C0.194,-0.389 0.194,-0.391 0.19,-0.394L0.19,-0.388ZM0.175,-0.382L0.179,-0.378L0.184,-0.377L0.185,-0.378L0.187,-0.378L0.187,-0.383C0.184,-0.383 0.182,-0.384 0.181,-0.385L0.179,-0.384L0.178,-0.383L0.175,-0.382ZM0.223,-0.383L0.225,-0.379L0.232,-0.379L0.225,-0.384L0.223,-0.383ZM0.157,-0.38C0.156,-0.381 0.155,-0.381 0.153,-0.382C0.151,-0.383 0.149,-0.383 0.148,-0.383C0.148,-0.382 0.149,-0.38 0.151,-0.379C0.152,-0.378 0.155,-0.377 0.16,-0.377L0.163,-0.377L0.163,-0.38L0.157,-0.38ZM0.221,-0.368L0.229,-0.368C0.23,-0.369 0.231,-0.37 0.231,-0.371L0.231,-0.375L0.223,-0.375L0.221,-0.368ZM0.15,-0.362C0.15,-0.361 0.15,-0.361 0.151,-0.361C0.151,-0.36 0.151,-0.36 0.152,-0.361L0.155,-0.362L0.153,-0.363L0.152,-0.363C0.151,-0.363 0.15,-0.363 0.15,-0.362ZM0.138,-0.343C0.141,-0.343 0.144,-0.344 0.145,-0.345C0.144,-0.345 0.142,-0.346 0.141,-0.347L0.14,-0.348L0.135,-0.348C0.133,-0.346 0.132,-0.344 0.132,-0.342L0.138,-0.343ZM0.152,-0.338C0.149,-0.338 0.144,-0.339 0.138,-0.34L0.135,-0.338L0.138,-0.334C0.139,-0.337 0.141,-0.338 0.143,-0.337C0.147,-0.337 0.15,-0.337 0.152,-0.338ZM0.109,-0.338C0.107,-0.337 0.106,-0.336 0.106,-0.334L0.109,-0.332L0.113,-0.333C0.113,-0.334 0.114,-0.335 0.116,-0.336L0.109,-0.338ZM0.381,-0.311L0.385,-0.316L0.387,-0.32L0.385,-0.327C0.384,-0.328 0.383,-0.331 0.381,-0.336L0.381,-0.311ZM0.151,-0.32C0.151,-0.321 0.153,-0.325 0.157,-0.33L0.153,-0.331L0.149,-0.331C0.147,-0.331 0.145,-0.33 0.143,-0.329L0.135,-0.326C0.137,-0.325 0.139,-0.325 0.141,-0.324C0.142,-0.323 0.143,-0.323 0.144,-0.322C0.143,-0.319 0.142,-0.316 0.143,-0.315L0.152,-0.317L0.151,-0.32ZM0.124,-0.322C0.126,-0.321 0.128,-0.321 0.129,-0.322L0.128,-0.323L0.126,-0.324L0.124,-0.323L0.124,-0.322ZM0.156,-0.323C0.157,-0.321 0.158,-0.32 0.159,-0.319C0.16,-0.318 0.161,-0.318 0.163,-0.318C0.164,-0.318 0.166,-0.319 0.17,-0.32L0.167,-0.323L0.156,-0.323ZM0.126,-0.32C0.122,-0.318 0.121,-0.316 0.123,-0.315L0.124,-0.311C0.127,-0.311 0.129,-0.312 0.13,-0.313C0.13,-0.316 0.129,-0.318 0.126,-0.32ZM0.171,-0.31L0.166,-0.31C0.164,-0.31 0.163,-0.309 0.163,-0.308C0.163,-0.307 0.162,-0.306 0.161,-0.306C0.161,-0.309 0.16,-0.311 0.158,-0.312L0.152,-0.312C0.152,-0.311 0.153,-0.31 0.154,-0.31L0.157,-0.307L0.15,-0.304L0.145,-0.3C0.146,-0.299 0.147,-0.299 0.148,-0.299C0.149,-0.299 0.149,-0.299 0.15,-0.298L0.158,-0.298C0.161,-0.298 0.165,-0.299 0.171,-0.302L0.171,-0.31ZM0.135,-0.306C0.133,-0.306 0.131,-0.305 0.13,-0.303C0.129,-0.3 0.128,-0.298 0.128,-0.296L0.128,-0.291C0.131,-0.288 0.134,-0.287 0.137,-0.287L0.14,-0.287L0.143,-0.289L0.143,-0.302L0.139,-0.305L0.135,-0.306ZM0.119,-0.301C0.118,-0.301 0.117,-0.301 0.116,-0.3C0.115,-0.299 0.114,-0.298 0.114,-0.297C0.117,-0.296 0.119,-0.296 0.121,-0.297L0.119,-0.301ZM0.341,-0.295L0.353,-0.295L0.353,-0.298L0.341,-0.298L0.341,-0.295ZM0.166,-0.292C0.167,-0.292 0.168,-0.293 0.168,-0.295L0.162,-0.295L0.16,-0.292L0.166,-0.292ZM0.111,-0.291C0.108,-0.29 0.106,-0.289 0.106,-0.287L0.111,-0.287C0.112,-0.288 0.112,-0.289 0.111,-0.291ZM0.157,-0.285C0.158,-0.284 0.16,-0.284 0.163,-0.284C0.163,-0.286 0.162,-0.288 0.159,-0.289L0.157,-0.285ZM0.128,-0.285C0.125,-0.282 0.124,-0.28 0.124,-0.279L0.133,-0.278L0.135,-0.282C0.134,-0.283 0.133,-0.284 0.133,-0.285L0.128,-0.285ZM0.145,-0.277L0.144,-0.283C0.141,-0.283 0.139,-0.282 0.139,-0.279L0.139,-0.275L0.145,-0.277ZM0.164,-0.275C0.164,-0.276 0.163,-0.277 0.162,-0.277L0.16,-0.279C0.159,-0.278 0.156,-0.278 0.151,-0.278L0.147,-0.277L0.145,-0.276L0.15,-0.272C0.154,-0.273 0.156,-0.274 0.157,-0.274L0.164,-0.275ZM0.148,-0.265L0.151,-0.267L0.143,-0.269L0.143,-0.265L0.148,-0.265ZM0.141,-0.265C0.138,-0.266 0.136,-0.267 0.133,-0.267L0.135,-0.263C0.138,-0.263 0.14,-0.264 0.141,-0.265ZM0.129,-0.259C0.129,-0.258 0.128,-0.257 0.127,-0.256L0.138,-0.255C0.139,-0.255 0.14,-0.256 0.14,-0.258L0.129,-0.259ZM0.119,-0.252C0.12,-0.25 0.122,-0.249 0.125,-0.249L0.121,-0.257L0.114,-0.256L0.119,-0.252ZM0.136,-0.243C0.135,-0.246 0.134,-0.247 0.135,-0.248C0.136,-0.25 0.136,-0.251 0.135,-0.252L0.132,-0.249C0.131,-0.249 0.131,-0.248 0.131,-0.247L0.131,-0.243L0.136,-0.243ZM0.156,-0.245C0.159,-0.245 0.161,-0.246 0.161,-0.249L0.156,-0.249L0.156,-0.245ZM0.103,-0.248C0.101,-0.247 0.1,-0.246 0.1,-0.245L0.106,-0.243C0.106,-0.244 0.106,-0.245 0.107,-0.246L0.108,-0.247L0.103,-0.248ZM0.131,-0.241L0.131,-0.237L0.134,-0.237L0.134,-0.241L0.131,-0.241ZM0.136,-0.239C0.136,-0.238 0.136,-0.237 0.137,-0.237L0.138,-0.235L0.145,-0.237C0.144,-0.237 0.144,-0.238 0.144,-0.239L0.144,-0.24C0.143,-0.24 0.142,-0.24 0.141,-0.24C0.14,-0.239 0.14,-0.239 0.139,-0.239L0.136,-0.239ZM0.152,-0.23L0.146,-0.23L0.146,-0.226L0.152,-0.226L0.152,-0.23ZM0.095,-0.224C0.094,-0.222 0.094,-0.22 0.096,-0.218C0.099,-0.219 0.101,-0.221 0.101,-0.224L0.095,-0.224ZM0.116,-0.217L0.118,-0.216C0.119,-0.216 0.12,-0.216 0.121,-0.217L0.12,-0.222L0.118,-0.222L0.117,-0.221L0.115,-0.221L0.115,-0.217L0.116,-0.217ZM0.095,-0.201C0.098,-0.201 0.099,-0.201 0.1,-0.202C0.1,-0.203 0.1,-0.203 0.101,-0.204C0.101,-0.204 0.101,-0.204 0.102,-0.205L0.099,-0.207L0.094,-0.205L0.095,-0.201ZM0.124,-0.203L0.119,-0.203L0.119,-0.202L0.123,-0.201L0.124,-0.203ZM0.108,-0.191C0.109,-0.19 0.111,-0.189 0.113,-0.189L0.113,-0.195C0.111,-0.195 0.109,-0.194 0.108,-0.191ZM0.196,-0.153L0.204,-0.153L0.204,-0.155L0.196,-0.155L0.196,-0.153ZM0.236,-0.152C0.233,-0.15 0.231,-0.149 0.231,-0.149C0.233,-0.148 0.234,-0.147 0.234,-0.145L0.239,-0.145C0.24,-0.146 0.241,-0.147 0.241,-0.148L0.242,-0.15L0.24,-0.155C0.24,-0.154 0.24,-0.154 0.239,-0.153C0.238,-0.152 0.237,-0.152 0.236,-0.152ZM0.293,-0.148L0.295,-0.148L0.296,-0.15L0.295,-0.151L0.293,-0.148ZM0.208,-0.15L0.202,-0.15L0.202,-0.148L0.208,-0.148L0.208,-0.15ZM0.254,-0.142L0.258,-0.143C0.258,-0.144 0.258,-0.144 0.257,-0.144C0.257,-0.144 0.256,-0.145 0.255,-0.146L0.254,-0.142ZM0.196,-0.14L0.198,-0.138C0.201,-0.139 0.202,-0.141 0.2,-0.142C0.199,-0.142 0.198,-0.142 0.198,-0.141L0.196,-0.141L0.196,-0.14ZM0.231,-0.138C0.23,-0.139 0.228,-0.14 0.226,-0.14L0.228,-0.133L0.229,-0.134C0.23,-0.134 0.23,-0.135 0.23,-0.136C0.231,-0.136 0.231,-0.137 0.231,-0.138ZM0.25,-0.136C0.247,-0.135 0.245,-0.133 0.245,-0.131L0.25,-0.131C0.25,-0.132 0.25,-0.133 0.251,-0.134L0.25,-0.136ZM0.108,-0.121L0.108,-0.115L0.114,-0.121L0.108,-0.121ZM0.128,-0.121C0.128,-0.119 0.13,-0.118 0.133,-0.118L0.133,-0.12C0.133,-0.121 0.133,-0.121 0.134,-0.121L0.128,-0.121ZM0.18,-0.118L0.182,-0.114L0.184,-0.114L0.181,-0.118L0.18,-0.118ZM0.276,-0.115C0.276,-0.112 0.278,-0.11 0.281,-0.11L0.283,-0.113L0.284,-0.115L0.276,-0.115ZM0.241,-0.113L0.239,-0.113L0.238,-0.11L0.241,-0.11L0.241,-0.113ZM0.208,-0.106L0.21,-0.108L0.208,-0.11L0.206,-0.11L0.208,-0.106ZM0.122,-0.096L0.114,-0.096L0.114,-0.091L0.122,-0.091L0.122,-0.096ZM0.03,-0.074C0.03,-0.077 0.031,-0.079 0.033,-0.08L0.02,-0.08L0.02,-0.074L0.03,-0.074ZM0.394,-0.076L0.406,-0.074L0.406,-0.077L0.396,-0.08L0.394,-0.076ZM0.095,-0.078L0.084,-0.078L0.084,-0.074L0.095,-0.074L0.095,-0.078ZM0.161,-0.074L0.161,-0.069L0.169,-0.069L0.169,-0.074L0.161,-0.074ZM0.216,-0.07C0.215,-0.069 0.215,-0.066 0.215,-0.062L0.216,-0.057L0.23,-0.057L0.232,-0.061C0.233,-0.062 0.233,-0.063 0.233,-0.065L0.228,-0.07L0.216,-0.07ZM0.062,-0.065L0.073,-0.065L0.073,-0.069L0.062,-0.069L0.062,-0.065ZM0.106,-0.044C0.108,-0.045 0.11,-0.047 0.111,-0.05C0.112,-0.053 0.113,-0.056 0.113,-0.059C0.113,-0.063 0.112,-0.066 0.11,-0.068C0.109,-0.068 0.106,-0.067 0.102,-0.065C0.105,-0.059 0.106,-0.052 0.106,-0.044ZM0.006,-0.058C0.007,-0.056 0.009,-0.055 0.012,-0.056C0.014,-0.056 0.017,-0.057 0.018,-0.058L0.006,-0.058ZM0.048,-0.054L0.046,-0.054L0.046,-0.058L0.037,-0.058L0.037,-0.054L0.046,-0.054L0.046,-0.05L0.048,-0.05L0.048,-0.054ZM0.152,-0.052C0.147,-0.052 0.143,-0.052 0.141,-0.051L0.135,-0.049L0.13,-0.048C0.131,-0.047 0.133,-0.046 0.134,-0.045C0.135,-0.043 0.136,-0.041 0.137,-0.04C0.14,-0.042 0.144,-0.045 0.147,-0.048L0.152,-0.052ZM0.084,-0.043C0.085,-0.045 0.086,-0.047 0.086,-0.049L0.069,-0.049L0.069,-0.04C0.074,-0.04 0.079,-0.039 0.083,-0.038L0.084,-0.043ZM0.267,-0.044L0.274,-0.044L0.274,-0.046L0.267,-0.046L0.267,-0.044ZM0.394,-0.031C0.394,-0.029 0.393,-0.028 0.392,-0.028C0.394,-0.028 0.396,-0.029 0.398,-0.031L0.394,-0.031ZM0.072,-0.029L0.064,-0.029L0.064,-0.025L0.072,-0.025L0.072,-0.029Z" style="fill:white;fill-rule:nonzero;"/>
                </g>
                <g transform="matrix(52.1251,0,0,52.1251,274.031,232)">
                    <path d="M0.191,-0.673C0.191,-0.678 0.189,-0.683 0.185,-0.688C0.181,-0.692 0.176,-0.694 0.171,-0.694L0.042,-0.697C0.029,-0.697 0.022,-0.691 0.021,-0.678L-0.01,-0.021C-0.01,-0.015 -0.008,-0.01 -0.004,-0.006C0,-0.002 0.005,-0 0.011,-0L0.394,-0.019C0.407,-0.019 0.414,-0.026 0.414,-0.039L0.417,-0.183C0.417,-0.189 0.415,-0.194 0.411,-0.198C0.407,-0.202 0.402,-0.204 0.396,-0.204L0.167,-0.201L0.191,-0.673ZM0.147,-0.647L0.145,-0.643L0.143,-0.644L0.145,-0.647L0.147,-0.647ZM0.18,-0.466L0.176,-0.464C0.174,-0.464 0.173,-0.465 0.173,-0.466C0.172,-0.466 0.172,-0.466 0.172,-0.467C0.172,-0.47 0.173,-0.471 0.176,-0.471C0.177,-0.471 0.178,-0.471 0.178,-0.47L0.18,-0.47L0.18,-0.466ZM0.149,-0.43C0.15,-0.43 0.15,-0.429 0.149,-0.428C0.148,-0.427 0.147,-0.426 0.146,-0.426L0.14,-0.426L0.14,-0.431L0.149,-0.43ZM0.111,-0.378L0.11,-0.377C0.109,-0.376 0.109,-0.376 0.108,-0.377C0.107,-0.377 0.106,-0.377 0.106,-0.378C0.106,-0.378 0.106,-0.378 0.106,-0.379C0.105,-0.38 0.105,-0.38 0.104,-0.38L0.108,-0.382L0.111,-0.382L0.111,-0.378ZM0.082,-0.238C0.082,-0.236 0.08,-0.234 0.077,-0.232C0.074,-0.229 0.071,-0.228 0.068,-0.228C0.063,-0.228 0.061,-0.229 0.06,-0.23L0.059,-0.234C0.059,-0.236 0.06,-0.238 0.062,-0.241C0.065,-0.244 0.067,-0.245 0.07,-0.245C0.071,-0.245 0.074,-0.244 0.077,-0.243C0.08,-0.242 0.082,-0.24 0.082,-0.238ZM0.076,-0.143C0.075,-0.143 0.074,-0.143 0.073,-0.144L0.068,-0.144L0.068,-0.149L0.076,-0.148L0.076,-0.143ZM0.134,-0.138L0.134,-0.14L0.142,-0.139L0.142,-0.136L0.134,-0.138ZM0.24,-0.135C0.24,-0.134 0.24,-0.134 0.239,-0.133C0.238,-0.132 0.236,-0.131 0.235,-0.131C0.231,-0.131 0.228,-0.132 0.227,-0.134L0.23,-0.138L0.237,-0.138L0.24,-0.135ZM0.194,-0.123L0.194,-0.122L0.192,-0.121L0.192,-0.119L0.189,-0.119C0.188,-0.119 0.187,-0.119 0.186,-0.12C0.187,-0.122 0.188,-0.123 0.19,-0.124L0.196,-0.124L0.194,-0.123ZM0.174,-0.12C0.175,-0.119 0.176,-0.119 0.175,-0.118C0.174,-0.117 0.173,-0.116 0.172,-0.116C0.171,-0.117 0.17,-0.118 0.17,-0.119L0.17,-0.122L0.174,-0.12ZM0.216,-0.117L0.21,-0.119L0.211,-0.122L0.218,-0.12L0.216,-0.117ZM0.098,-0.112C0.095,-0.112 0.094,-0.111 0.094,-0.11L0.091,-0.112C0.09,-0.112 0.09,-0.113 0.09,-0.114C0.09,-0.117 0.091,-0.118 0.094,-0.118L0.096,-0.117C0.096,-0.116 0.097,-0.116 0.098,-0.116L0.098,-0.112ZM0.12,-0.1C0.119,-0.1 0.117,-0.099 0.115,-0.098C0.114,-0.102 0.114,-0.105 0.115,-0.108C0.116,-0.108 0.117,-0.108 0.118,-0.107L0.12,-0.107L0.12,-0.1ZM0.216,-0.107C0.219,-0.107 0.222,-0.105 0.225,-0.101C0.225,-0.099 0.224,-0.097 0.221,-0.096C0.218,-0.095 0.215,-0.094 0.213,-0.094C0.208,-0.094 0.205,-0.096 0.205,-0.101C0.205,-0.103 0.207,-0.104 0.21,-0.105L0.216,-0.107ZM0.115,-0.089L0.114,-0.09C0.114,-0.091 0.114,-0.092 0.113,-0.092C0.112,-0.093 0.112,-0.093 0.111,-0.094C0.11,-0.094 0.11,-0.094 0.11,-0.095C0.111,-0.095 0.112,-0.095 0.113,-0.096C0.114,-0.097 0.115,-0.097 0.116,-0.096C0.117,-0.095 0.117,-0.095 0.117,-0.094C0.117,-0.093 0.118,-0.092 0.119,-0.092L0.115,-0.089ZM0.21,-0.077C0.21,-0.078 0.211,-0.079 0.213,-0.08L0.217,-0.08L0.217,-0.079L0.219,-0.078L0.217,-0.076L0.21,-0.077ZM0.052,-0.074C0.055,-0.077 0.058,-0.078 0.062,-0.078L0.066,-0.077L0.068,-0.076L0.064,-0.072L0.052,-0.074ZM0.048,-0.073L0.046,-0.072L0.045,-0.074L0.047,-0.074L0.048,-0.073ZM0.379,-0.067C0.378,-0.066 0.377,-0.066 0.377,-0.068C0.377,-0.07 0.378,-0.071 0.379,-0.071C0.38,-0.071 0.38,-0.071 0.381,-0.07C0.381,-0.069 0.38,-0.068 0.379,-0.067ZM0.133,-0.064C0.132,-0.063 0.131,-0.063 0.13,-0.063C0.129,-0.063 0.128,-0.062 0.128,-0.061C0.127,-0.062 0.126,-0.063 0.125,-0.063C0.124,-0.063 0.124,-0.064 0.124,-0.066C0.124,-0.067 0.124,-0.068 0.125,-0.068L0.126,-0.069L0.131,-0.069L0.133,-0.068L0.133,-0.064ZM0.239,-0.057C0.237,-0.056 0.235,-0.056 0.232,-0.056C0.231,-0.057 0.231,-0.057 0.23,-0.057C0.229,-0.056 0.228,-0.056 0.227,-0.056L0.223,-0.056L0.223,-0.059C0.224,-0.06 0.225,-0.062 0.227,-0.063C0.228,-0.064 0.23,-0.064 0.232,-0.064C0.233,-0.064 0.234,-0.063 0.235,-0.062L0.239,-0.06L0.239,-0.057ZM0.057,-0.061L0.052,-0.059L0.052,-0.061L0.056,-0.062L0.057,-0.061ZM0.158,-0.059C0.158,-0.058 0.157,-0.057 0.155,-0.057C0.153,-0.057 0.151,-0.057 0.15,-0.056L0.15,-0.06L0.154,-0.059L0.158,-0.059ZM0.132,-0.054C0.131,-0.053 0.13,-0.053 0.129,-0.053L0.129,-0.056L0.133,-0.055L0.132,-0.054Z" style="fill:white;fill-rule:nonzero;"/>
                </g>
            </g>
        </g>
    </g>
</svg>
